<?xml version="1.0" encoding="utf-8"?>
<!-- Generator: Adobe Illustrator 22.0.1, SVG Export Plug-In . SVG Version: 6.00 Build 0)  -->
<svg version="1.1" id="Layer_1" xmlns="http://www.w3.org/2000/svg" xmlns:xlink="http://www.w3.org/1999/xlink" x="0px" y="0px"
	 viewBox="0 0 100 100" style="enable-background:new 0 0 100 100;" xml:space="preserve">
<style type="text/css">
	.st0{fill:#F93887;}
</style>
<g id="Page-1">
	<g id="logo" transform="translate(-20.000000, -20.000000)">
		<g id="Group-28-Copy-5" transform="translate(20.000000, 20.000000)">
			<g id="Group-27-Copy-3">
				<g id="Group-25">
					<g id="_x32_">
						<path id="Shape" class="st0" d="M45.8,1.9L1.9,45.7c-2.4,2.4-2.4,6.2,0,8.5l43.9,43.9c2.4,2.4,6.2,2.4,8.5,0l18.4-18.4
							c2.1-2.1,2.1-5.5,0-7.6s-5.5-2.1-7.7,0L51.1,86c-0.6,0.6-1.5,0.6-2.1,0L14,51c-0.6-0.6-0.6-1.5,0-2.1l35.1-35
							c0.6-0.6,1.5-0.6,2.1,0l14,13.9c2.1,2.1,5.5,2.1,7.7,0c2.1-2.1,2.1-5.5,0-7.6L54.3,1.8C52-0.5,48.2-0.5,45.8,1.9z"/>
						<path id="Shape_1_" class="st0" d="M45.8,1.9L1.9,45.7c-2.4,2.4-2.4,6.2,0,8.5l43.9,43.9c2.4,2.4,6.2,2.4,8.5,0l18.4-18.4
							c2.1-2.1,2.1-5.5,0-7.6s-5.5-2.1-7.7,0L51.1,86c-0.6,0.6-1.5,0.6-2.1,0L14,51c-0.6-0.6-0.6-1.5,0-2.1l35.1-35
							c1.5-1.3,3.8-3.8,7.4-4.4C59,9,61.9,10,65,12.4c-2.1-2.1-5.6-5.6-10.6-10.6C52-0.5,48.2-0.5,45.8,1.9z"/>
					</g>
					<path id="Shape_2_" class="st0" d="M77,68c2.1,2.1,5.5,2.1,7.7,0l13.6-13.6c2.4-2.4,2.4-6.2,0-8.5L84.5,32.3
						c-2.1-2.1-5.5-2.1-7.7,0c-2.1,2.1-2.1,5.5,0,7.6l9.3,9.2c0.6,0.6,0.6,1.5,0,2.1L77,60.4C74.9,62.5,74.9,65.9,77,68z"/>
				</g>
				<ellipse id="Combined-Shape" class="st0" cx="50.3" cy="50.2" rx="11.9" ry="11.8"/>
			</g>
		</g>
	</g>
</g>
</svg>
