<?xml version="1.0" encoding="utf-8"?>
<!-- Generator: Adobe Illustrator 22.0.1, SVG Export Plug-In . SVG Version: 6.00 Build 0)  -->
<svg version="1.1" id="Layer_1" xmlns="http://www.w3.org/2000/svg" xmlns:xlink="http://www.w3.org/1999/xlink" x="0px" y="0px"
	 viewBox="0 0 100 100" style="enable-background:new 0 0 100 100;" xml:space="preserve">
<style type="text/css">
	.st0{fill:#F93887;}
</style>
<g>
	<path class="st0" d="M54.4,1.2c9.2,0.9,18.1,4.4,25.6,10c0.9,0.7,2.3,1.1,3.5,1.2c3.7,0.1,6.4,2.8,6.2,6.4c-0.1,3.5-3,6-6.5,5.7
		c-3.5-0.2-6-3.2-5.5-6.7c0.2-1.5-0.3-2.2-1.4-3C62.5,5.1,47.7,3,32.3,9.9C16.8,16.8,7.9,29.1,6.3,46c-2.2,23.7,14.8,44.7,38,47.6
		c23.9,2.9,45.4-13.3,49.1-37.3c0.9-5.8,0.5-11.6-0.9-17.2c-0.5-1.8-0.5-3.4,1.6-3.9s2.9,1,3.3,2.7c0.8,3.8,1.4,7.9,1.5,11.9
		c0.1,4.1-0.5,7.8-1.5,11.8c-0.7,2.6-1.5,5.2-2.6,7.7c-2.1,4.9-5,9.4-8.6,13.4c-7,7.9-16.5,13.5-26.9,15.4c-2.4,0.4-4.8,0.7-7.2,0.8
		C27.1,99.6,6.3,83,1.8,58.7c-2.9-15.6,2-31.5,13.1-42.8c0.5-0.5,1-1,1.6-1.5C23.3,7.9,32.1,3.5,41.3,1.8C45.7,1,50.1,0.8,54.4,1.2z
		"/>
	<path class="st0" d="M27.5,69.4c2.1-5.3,3.9-10.2,5.8-15.2c3.4-8.9,6.9-17.8,10.3-26.7c0.5-1.5,1.2-2,2.8-2c2.7,0.1,5.4,0,8.1,0.1
		c0.7,0,1.8,0.6,2,1.2c5.5,14,10.9,28,16.5,42.5c-3.5,0-6.7,0.1-9.9-0.1c-0.5,0-1-1.2-1.3-1.9c-3.6-10-7.1-20-10.6-30
		c-0.2-0.6-0.5-1.2-0.9-2.4c-2.3,6.4-4.5,12.3-6.8,18.8c2.3,0,4.2,0,6.1,0c5.5,0.1,4-0.8,6,4.3c0.4,1.1,0.8,2.3,1.2,3.8
		c-4.7,0-9,0.1-13.3,0c-1.8,0-2.8,0.4-3.4,2.2c-1.8,5.4-1.9,5.3-7.7,5.3C30.7,69.4,29.3,69.4,27.5,69.4z"/>
</g>
</svg>
