<?xml version="1.0" encoding="utf-8"?>
<!-- Generator: Adobe Illustrator 22.0.1, SVG Export Plug-In . SVG Version: 6.00 Build 0)  -->
<svg version="1.1"
	 id="svg2" inkscape:version="0.48.1 r9760" sodipodi:docname="twitter_bootstrap_logo.svg" xmlns:cc="http://creativecommons.org/ns#" xmlns:dc="http://purl.org/dc/elements/1.1/" xmlns:inkscape="http://www.inkscape.org/namespaces/inkscape" xmlns:rdf="http://www.w3.org/1999/02/22-rdf-syntax-ns#" xmlns:sodipodi="http://sodipodi.sourceforge.net/DTD/sodipodi-0.dtd" xmlns:svg="http://www.w3.org/2000/svg"
	 xmlns="http://www.w3.org/2000/svg" xmlns:xlink="http://www.w3.org/1999/xlink" x="0px" y="0px" viewBox="0 0 2000 2008.3"
	 style="enable-background:new 0 0 2000 2008.3;" xml:space="preserve">
<style type="text/css">
	.st0{fill:#F93887;}
</style>
<sodipodi:namedview  bordercolor="#666666" borderopacity="1" fit-margin-bottom="0" fit-margin-left="0" fit-margin-right="0" fit-margin-top="0" gridtolerance="10" guidetolerance="10" id="namedview2996" inkscape:current-layer="svg2" inkscape:cx="116.80866" inkscape:cy="407.66551" inkscape:pageopacity="0" inkscape:pageshadow="2" inkscape:window-height="623" inkscape:window-maximized="0" inkscape:window-width="864" inkscape:window-x="0" inkscape:window-y="0" inkscape:zoom="0.24896372" objecttolerance="10" pagecolor="#ffffff" showgrid="false">
	</sodipodi:namedview>
<g>
	<path class="st0" d="M1173.4,1123.7c-32.6-27.2-81.7-40.8-147.3-40.8H835.8v325.8H1026c65.1,0,113.9-13.6,146.5-40.8
		c33.1-27.2,49.7-68.3,49.7-123.3C1222.2,1190.6,1205.9,1150.4,1173.4,1123.7z"/>
	<path class="st0" d="M1015.1,864.6c51.1,0,89.8-11.1,116.2-33.3c26.4-22.2,39.6-55,39.6-98.3c0-42.8-13.2-75.3-39.6-97.5
		c-26.4-22.8-65.1-34.2-116.2-34.2H835.8v263.3L1015.1,864.6L1015.1,864.6z"/>
	<path class="st0" d="M1668.4,4.1H331.6C149.2,4.1,0,153.4,0,335.7v1336.8c0,182.4,149.2,331.6,331.6,331.6h1336.8
		c182.4,0,331.6-149.2,331.6-331.6V335.7C2000,153.4,1850.8,4.1,1668.4,4.1z M1423.4,1538.7c-81.9,58.9-206.6,88.3-373.8,88.3h-538
		V383h486.6c174.6,0,300.8,26.1,378.9,78.3c78.6,52.2,117.9,135.8,117.9,250.8c0,60.6-14.3,112.2-42.9,155
		c-28.6,42.2-70.2,73.6-124.6,94.2l0,0c69.6,20,123.5,56.9,161.7,110.8c38.2,53.9,57.2,120,57.3,198.3
		C1546.4,1390.3,1505.4,1479.8,1423.4,1538.7z"/>
</g>
</svg>
