<?xml version="1.0" encoding="utf-8"?>
<!-- Generator: Adobe Illustrator 22.0.1, SVG Export Plug-In . SVG Version: 6.00 Build 0)  -->
<svg version="1.1" id="Layer_1" xmlns="http://www.w3.org/2000/svg" xmlns:xlink="http://www.w3.org/1999/xlink" x="0px" y="0px"
	 viewBox="0 0 100 100" style="enable-background:new 0 0 100 100;" xml:space="preserve">
<style type="text/css">
	.st0{fill:#F93887;}
</style>
<path class="st0" d="M92.5,1H6.8v0.6C7,2.4,7,3.3,7.1,4.1C7.4,7.5,7.7,11,8.2,14.5c0.3,2.9,0.5,5.9,0.8,8.9s0.5,6,0.8,9s0.5,6,0.8,9
	c0.3,3.3,0.6,6.7,0.9,10c0.3,2.9,0.5,5.9,0.8,8.9s0.5,6,0.8,9c0.2,2.6,0.5,5.2,0.7,7.8c0.3,3,0.5,6.1,0.8,9.1
	c0.1,0.9,0.1,1.7,0.2,2.6c0,0.3,0.1,0.4,0.4,0.5c7.3,2,14.5,4,21.7,6c4.2,1.2,8.4,2.3,12.6,3.5c0.1,0.1,0.3,0.1,0.4,0.2h0.4
	c0.7-0.3,1.5-0.5,2.2-0.7c10.8-3,21.7-6,32.5-9c0.3-0.1,0.4-0.3,0.4-0.6c0.1-1.2,0.2-2.4,0.3-3.6c0.3-3,0.5-6.1,0.8-9.1
	c0.2-2.6,0.5-5.2,0.7-7.8c0.3-3,0.5-6,0.8-9c0.2-2.6,0.5-5.2,0.7-7.8c0.3-3,0.5-6,0.8-9c0.2-2.7,0.5-5.3,0.7-7.9
	c0.3-3,0.5-6.1,0.8-9.1c0.2-2.5,0.5-5.1,0.7-7.7c0.3-3.1,0.5-6.1,0.8-9.2c0.2-2.3,0.4-4.5,0.6-6.8C93.1,1,93.2,1,92.5,1z M76.5,30.3
	c-0.4,4.4-0.8,8.8-1.2,13.2c-0.3,3.3-0.6,6.7-0.9,10.1c-0.3,3.7-0.7,7.4-1,11.2c-0.3,3-0.5,5.9-0.8,9c-0.1,0.3-0.1,0.4-0.4,0.5
	c-7.3,2-14.6,4-21.8,6h-0.1v0.1H50v-0.1c-1.6-0.4-3.3-0.8-4.9-1.3c-5.6-1.6-11.2-3.2-16.8-4.7c-0.3-0.1-0.5-0.2-0.5-0.6
	c-0.2-2.3-0.4-4.5-0.6-6.8c-0.2-2.7-0.5-5.3-0.7-8c0-0.5,0-0.9-0.1-1.4c0-0.2,0-0.3,0.3-0.3h10.2c0.2,0,0.3,0.2,0.3,0.4
	c0.1,1.7,0.3,3.3,0.4,4.9c0.1,1,0.2,2.1,0.3,3.1c0,0.2,0.1,0.2,0.3,0.3c3.8,1.1,7.6,2.1,11.4,3.1H50V69c3.8-1,7.6-2,11.5-3
	c0.4-0.1,0.6-0.3,0.6-0.8c0.3-3.4,0.6-6.9,0.9-10.3c0-0.9,0.1-1.7,0.2-2.6c0.1-0.4-0.1-0.5-0.5-0.5H50.1v-0.1H26.4
	c-0.4,0-0.6-0.1-0.6-0.5c-0.2-3.1-0.5-6.1-0.8-9.2c-0.1-1.1-0.1-1.1,1-1.1h24.1c0.1,0.1,0.3,0,0.7,0.1h13.1c0.4,0,0.5-0.1,0.5-0.5
	c0.2-3,0.5-6.1,0.8-9.1v-0.6c0.1-0.9,0.1-0.9-0.8-0.9H52.5V30H24.8v-0.2c-0.2,0-0.3-0.1-0.4-0.3c-0.1-0.1-0.2-0.2-0.2-0.4
	c-0.2-3-0.5-6.1-0.8-9.1c0-0.3-0.1-0.6-0.1-0.9c0-0.1,0-0.2,0.1-0.2c0.1-0.2,0.2-0.3,0.5-0.3h0.8c0.1,0,0.2,0,0.3,0.1H77
	c0.4,0,0.5,0,0.5,0.5C77.1,22.9,76.8,26.6,76.5,30.3z"/>
<path class="st0" d="M85.2,13c0-0.7,0.1-1.3,0.2-2C85.3,11.7,85.3,12.3,85.2,13z"/>
</svg>
