<?xml version="1.0" encoding="utf-8"?>
<!-- Generator: Adobe Illustrator 22.0.1, SVG Export Plug-In . SVG Version: 6.00 Build 0)  -->
<svg version="1.1" id="Layer_1" xmlns="http://www.w3.org/2000/svg" xmlns:xlink="http://www.w3.org/1999/xlink" x="0px" y="0px"
	 viewBox="0 0 100 100" style="enable-background:new 0 0 100 100;" xml:space="preserve">
<style type="text/css">
	.st0{fill:#F93887;}
</style>
<g>
	<path class="st0" d="M30.9,80.6c0-6.2,0-12.3,0-18.5c0-0.4,0.2-0.6,0.6-0.6c5.8,0,11.9,0,17.7,0c0.8,0,0.6,0.6,0.6,1
		c0,5.6,0,11.3,0,16.9c0,0.8,0.2,1,1,1C63.9,80.2,76.2,70.3,79,57.4c2.4-10.7,0.2-20.3-7.4-28.6c-4.4-4.8-10.3-7.6-16.7-8.7
		c-11.7-1.6-21.3,2-28.8,11.1c-4.2,5-6.2,11.1-6.4,17.5c0,0.8-0.2,1.2-1,1.2C13,50,7.3,50,1.7,50c-0.8,0-1.2-0.2-1-1
		c0.4-11.7,4.2-22.1,11.9-31S29.7,3.5,41.2,1.5c26.2-4.6,51.5,11.1,57,37.6c3.8,18.5-1.2,34.4-15.1,47.3
		c-7.8,7.2-17.1,11.5-27.8,12.5c-1.4,0.2-3,0.2-4.4,0.4c-0.6,0-0.8-0.2-0.8-0.8c0-5.6,0-11.5,0-17.1c0-0.8-0.2-1-1-1
		c-5.6,0-11.5,0-17.1,0C31.3,80.4,31.1,80.6,30.9,80.6L30.9,80.6z"/>
	<path class="st0" d="M16.2,80.6c3,0,5.8,0,8.9,0c2,0,3.8,0,5.8,0l0,0c0,4.4,0,9.1,0,13.5c0,0.6,0,1-0.8,1c-4.2,0-8.7,0-12.9,0
		c-0.8,0-0.8-0.2-0.8-1C16.2,89.7,16.2,85,16.2,80.6L16.2,80.6z"/>
	<path class="st0" d="M16.2,80.6c-3.6,0-7.4,0-11.1,0c-0.8,0-1-0.2-1-1c0-3.4,0-6.8,0-10.3c0-0.8,0.2-1,1-1c3.4,0,6.8,0,10.5,0
		c0.4,0,0.8-0.2,0.8,0.6C16.2,72.7,16.2,76.6,16.2,80.6L16.2,80.6z"/>
</g>
</svg>
