<?xml version="1.0" encoding="utf-8"?>
<!-- Generator: Adobe Illustrator 22.0.1, SVG Export Plug-In . SVG Version: 6.00 Build 0)  -->
<svg version="1.1" id="Layer_1" xmlns="http://www.w3.org/2000/svg" xmlns:xlink="http://www.w3.org/1999/xlink" x="0px" y="0px"
	 viewBox="0 0 100 100" style="enable-background:new 0 0 100 100;" xml:space="preserve">
<style type="text/css">
	.st0{fill:#F93887;}
</style>
<g>
	<path class="st0" d="M50,1c26.7-0.4,49.4,22.3,49,49c0.4,26.4-22,49.5-49.1,49C23,99.4,0.5,76.3,1,49.9C0.7,23.3,23.3,0.6,50,1z
		 M34.1,51.5c2.3,0,4.7,0,7,0c2.1,0,4.1,0,6.2,0c0.3,0,0.5-0.1,0.5-0.5c0-0.6,0-1.2,0-1.8c-0.2-2.9-0.7-5.7-1.8-8.4
		c-1.6-3.7-4-6.7-7.7-8.5c-3-1.5-6.1-1.7-9.4-1.3c-4.4,0.6-7.9,2.6-10.6,6c-2.8,3.5-4,7.6-4.1,12.1c-0.1,2.8,0.4,5.6,1.2,8.3
		c1.4,4.4,4,7.8,8.2,9.9c2.2,1.1,4.6,1.5,7,1.6c3,0.1,5.9-0.2,8.6-1.4c4.3-2,7-5.2,8-9.9c0.1-0.3,0.1-0.5-0.4-0.5
		c-1.7,0-3.4,0-5.1,0c-0.3,0-0.4,0.1-0.5,0.4c-0.6,2.6-2.4,4.3-4.7,5.4c-2.2,1-4.5,1-6.8,0.7c-3.1-0.4-5.6-1.9-7.3-4.5
		C21,57,20.6,54.5,20.6,52c0-0.4,0.1-0.6,0.6-0.6C25.4,51.5,29.7,51.5,34.1,51.5z M85.9,69c-0.1-0.2-0.2-0.3-0.3-0.5
		c-4.7-6.5-9.4-13.1-14-19.6c-0.3-0.4-0.2-0.6,0-0.9c4.1-5.5,8.2-11,12.4-16.6c0.1-0.1,0.2-0.2,0.2-0.4c-0.2,0-0.3,0-0.5,0
		c-2.1,0-4.3,0-6.4,0c-0.4,0-0.6,0.1-0.9,0.4c-2.3,3.3-4.7,6.5-7,9.8c-0.7,1-1.4,2-2.2,3c-0.1-0.2-0.2-0.3-0.3-0.5
		c-2.8-4.1-5.7-8.2-8.5-12.4C58.3,31.1,58,31,57.7,31c-2.3,0-4.6,0-6.9,0c-0.2,0-0.3,0-0.5,0c0,0.2,0.1,0.3,0.2,0.4
		c4.2,5.7,8.4,11.4,12.6,17.1c0.3,0.3,0.2,0.6,0,0.9c-4.6,6.4-9.1,12.7-13.6,19.1c-0.1,0.1-0.3,0.2-0.2,0.5c2.3,0,4.6,0,7,0
		c0.4,0,0.6-0.1,0.8-0.4c3.3-4.9,6.6-9.9,10-14.8c0.1-0.2,0.2-0.4,0.4-0.5c0.6,0.9,1.2,1.8,1.8,2.6c2.8,4.2,5.7,8.4,8.5,12.7
		c0.2,0.2,0.3,0.4,0.6,0.4c2.4,0,4.9,0,7.3,0C85.7,69.1,85.7,69,85.9,69z"/>
	<path class="st0" d="M30.8,46.5c-3.2,0-6.5,0-9.7,0c-0.7,0-0.7,0-0.6-0.6c0.4-3.4,1.9-6.2,4.8-8.1c2-1.3,4.3-1.7,6.7-1.5
		c2,0.2,3.8,0.9,5.4,2.2c1.9,1.5,3,3.4,3.6,5.7c0.2,0.6,0.2,1.2,0.4,1.8c0.1,0.4,0,0.5-0.4,0.5C37.5,46.5,34.2,46.5,30.8,46.5z"/>
</g>
</svg>
