<?xml version="1.0" encoding="utf-8"?>
<!-- Generator: Adobe Illustrator 22.0.1, SVG Export Plug-In . SVG Version: 6.00 Build 0)  -->
<svg version="1.1" id="Layer_1" xmlns="http://www.w3.org/2000/svg" xmlns:xlink="http://www.w3.org/1999/xlink" x="0px" y="0px"
	 viewBox="0 0 100 100" style="enable-background:new 0 0 100 100;" xml:space="preserve">
<style type="text/css">
	.st0{fill:#F93887;}
</style>
<g>
	<g>
		<path class="st0" d="M12.8,50c0-3.8,0-7.6,0-11.5c0-0.2-0.1-0.3-0.3-0.4c-3.5-1.1-5.7-3.4-6.3-7c-0.7-4,1.4-7.9,5.1-9.6
			c3.3-1.5,7.2-0.7,9.7,1.8c0.2,0.2,0.3,0.2,0.5,0.1c6.6-3.8,13.2-7.6,19.8-11.4c0.2-0.1,0.3-0.2,0.2-0.5c-0.8-3.3,0-6.2,2.5-8.6
			c1.4-1.4,3.2-2.2,5.2-2.4c2.8-0.2,5.3,0.7,7.2,2.7c1.3,1.4,2.1,3.1,2.3,5c0.1,1.1,0.1,2.2-0.2,3.3c0,0.2,0,0.3,0.1,0.3
			c6.6,3.8,13.2,7.6,19.8,11.4c0.3,0.2,0.3,0.2,0.6-0.1c1.5-1.5,3.4-2.3,5.5-2.5c4.4-0.3,8.3,2.6,9.3,6.9c1,4.5-1.8,9.2-6.3,10.3
			c-0.2,0-0.2,0.1-0.2,0.3c0,7.7,0,15.3,0,23c0,0.2,0.1,0.3,0.2,0.3c3.5,1.1,5.7,3.4,6.4,7c0.9,4.8-2.4,9.4-7.2,10.1
			c-3,0.5-5.7-0.4-7.8-2.6c-0.2-0.2-0.3-0.2-0.5-0.1c-6.5,3.8-13.1,7.6-19.6,11.3c-0.2,0.1-0.3,0.2-0.2,0.5c1.4,4.8-1.4,9.7-6.2,11
			c-5,1.3-10.1-2-10.9-7.1c-0.2-1.2-0.2-2.5,0.2-3.7c0.1-0.2,0-0.3-0.2-0.4c-3.6-2.1-7.2-4.1-10.8-6.2c-3-1.7-6-3.5-9-5.2
			c-0.2-0.1-0.3-0.1-0.5,0.1c-1.5,1.5-3.4,2.3-5.5,2.5c-4.6,0.3-8.6-2.9-9.3-7.4c-0.7-4.4,2.1-8.7,6.4-9.9c0.2-0.1,0.2-0.1,0.2-0.3
			C12.8,57.6,12.8,53.8,12.8,50z M50,68.2c8.8,0,17.5,0,26.3,0c0.2,0,0.3-0.1,0.4-0.3c0.4-1.4,1.1-2.7,2.2-3.8
			c0.2-0.2,0.2-0.3,0.1-0.6c-1.5-2.5-3-5.1-4.4-7.7c-3.8-6.6-7.6-13.2-11.4-19.8c-3.5-6-7-12.1-10.5-18.1c-0.1-0.2-0.2-0.2-0.4-0.2
			c-1.5,0.4-3,0.4-4.4,0c-0.2-0.1-0.3,0-0.4,0.2c-2.9,5-5.7,9.9-8.6,14.9C32.9,43.2,27,53.5,21,63.7C21,63.9,21,64,21.1,64.1
			c1.1,1.1,1.8,2.4,2.2,3.8c0.1,0.2,0.2,0.3,0.4,0.3C32.5,68.2,41.2,68.2,50,68.2z M50,72.4c-7.8,0-15.6,0-23.5,0c-1,0-2,0-3,0
			c-0.1,0-0.2,0-0.2,0.2c0,0.1,0,0.2,0.1,0.3c0.3,0.1,0.5,0.3,0.8,0.5c6.4,3.7,12.7,7.3,19.1,11c0.2,0.1,0.4,0.1,0.6-0.1
			c1.9-1.8,4.2-2.6,6.8-2.4c2.2,0.2,4.1,1.1,5.6,2.7c0.1,0.1,0.2,0.1,0.4,0c4.5-2.6,9-5.2,13.5-7.8c2.1-1.2,4.2-2.4,6.3-3.6
			c0.1,0,0.2-0.1,0.2-0.1c0-0.2-0.1-0.3-0.1-0.5c0-0.1-0.2,0-0.3,0C67.5,72.4,58.8,72.4,50,72.4z M16.9,50c0,3.8,0,7.7,0,11.5
			c0,0.1,0,0.3,0.2,0.3c0.2,0,0.2-0.1,0.3-0.2c2.8-4.9,5.6-9.8,8.4-14.6c3.4-5.9,6.9-11.9,10.3-17.8c2.5-4.4,5.1-8.8,7.6-13.1
			c0.1-0.1,0.2-0.2,0-0.4c-0.2-0.2-0.3,0-0.4,0c-6.6,3.8-13.2,7.6-19.8,11.4c-0.2,0.1-0.3,0.2-0.2,0.5c0.3,1.1,0.4,2.3,0.2,3.5
			c-0.7,3.6-2.8,6-6.3,7.1c-0.2,0.1-0.3,0.1-0.3,0.4C16.9,42.3,16.9,46.2,16.9,50z M82.8,61.8c0.2,0,0.2-0.2,0.2-0.4
			c0-5.2,0-10.5,0-15.7c0-2.4,0-4.8,0-7.2c0-0.2,0-0.3-0.2-0.3c-0.1,0-0.1,0-0.2,0c-4.5-1.3-7.2-6-6-10.5c0.1-0.2,0-0.4-0.2-0.5
			c-5.8-3.3-11.5-6.6-17.3-10c-0.9-0.5-1.7-1-2.6-1.5c-0.1-0.1-0.2-0.1-0.3,0c-0.1,0.1,0,0.2,0,0.3c1,1.7,2,3.4,3,5.1
			c3.6,6.2,7.1,12.3,10.7,18.5c3.5,6,7,12.1,10.5,18.1c0.8,1.3,1.5,2.6,2.3,4C82.6,61.7,82.7,61.8,82.8,61.8z"/>
	</g>
</g>
</svg>
