<?xml version="1.0" encoding="utf-8"?>
<!-- Generator: Adobe Illustrator 22.0.1, SVG Export Plug-In . SVG Version: 6.00 Build 0)  -->
<svg version="1.1" id="Layer_1" xmlns="http://www.w3.org/2000/svg" xmlns:xlink="http://www.w3.org/1999/xlink" x="0px" y="0px"
	 viewBox="0 0 100 100" style="enable-background:new 0 0 100 100;" xml:space="preserve">
<style type="text/css">
	.st0{fill:#F93887;}
</style>
<g>
	<path class="st0" d="M90,50c0,11.9,0,23.8,0,35.8c0,5.2-2.5,9-7.2,11.2c-1.4,0.7-2.9,1-4.4,1c-0.2,0-0.3,0-0.5,0
		c-18.6,0-37.1,0-55.7,0c-4.6,0-8-2-10.5-5.9c-1.1-1.8-1.7-3.8-1.7-5.9c0-3.3,0-6.6,0-9.9c0-20.6,0-41.3,0-61.9
		c0-5,2.3-8.7,6.6-11.1c1.5-0.8,3.2-1.2,4.9-1.3c0.3,0,0.5,0,0.8,0c18.4,0,36.9,0,55.3,0c5,0,8.7,2.3,11,6.6
		c0.9,1.6,1.3,3.4,1.3,5.2c0,2.4,0,4.8,0,7.2C90,30.7,90,40.3,90,50z M18,50c0,12,0,23.9,0,35.9c0,2.4,1.7,4.1,4.1,4.1
		c18.6,0,37.2,0,55.8,0c2.4,0,4.1-1.7,4.1-4.1C82,62,82,38,82,14.1c0-2.4-1.7-4.1-4.1-4.1c-18.6,0-37.2,0-55.8,0
		c-2.4,0-4.1,1.7-4.1,4.1C18,26.1,18,38,18,50z"/>
	<path class="st0" d="M70,82c-2.7,0-5.3,0-8,0c0-0.2,0-0.3,0-0.5c0-10.5,0-21,0-31.5c0-1-0.4-1.8-1.2-2.4c-1-0.8-2.1-1.1-3.3-1.3
		c-2.6-0.4-5.2,0-7.7,0.5c-4.4,0.9-8.5,2.4-12.6,4.1c-2.3,0.9-4.5,2-6.8,3c-0.1,0-0.2,0.1-0.3,0.1c0-12,0-23.9,0-35.8
		c2.7,0,5.3-0.1,8-0.1c0,8,0,16,0,24c0.8-0.3,1.6-0.5,2.3-0.8c4.1-1.4,8.2-2.4,12.5-2.9c2.9-0.3,5.8-0.4,8.7,0.2
		c1.9,0.4,3.7,1.1,5.2,2.4c1.7,1.5,2.7,3.4,3,5.6c0.2,1,0.2,2,0.2,3c0,10.6,0,21.3,0,31.9C70,81.6,70,81.8,70,82z"/>
	<path class="st0" d="M74,18c-2.1,2.6-4.1,5.1-6.1,7.7c-1.1,1.3-2.1,2.7-3.2,4.1c-0.1,0.1-0.3,0.2-0.4,0.2c-3.3,0-6.6,0-9.9,0
		c-0.1,0-0.1,0-0.3,0c0.7-0.8,1.3-1.6,1.9-2.4c2.3-3.1,4.6-6.2,7-9.3c0.2-0.3,0.4-0.3,0.7-0.3c3.3,0,6.6,0,10,0
		C73.6,18,73.8,18,74,18z"/>
	<path class="st0" d="M30,62c4,3.3,8,6.6,12,10c-4,3.3-8,6.5-12,9.8C30,75.2,30,68.7,30,62z"/>
</g>
</svg>
