<?xml version="1.0" encoding="utf-8"?>
<!-- Generator: Adobe Illustrator 22.0.1, SVG Export Plug-In . SVG Version: 6.00 Build 0)  -->
<svg version="1.1" id="Layer_1" xmlns="http://www.w3.org/2000/svg" xmlns:xlink="http://www.w3.org/1999/xlink" x="0px" y="0px"
	 viewBox="0 0 100 100" style="enable-background:new 0 0 100 100;" xml:space="preserve">
<style type="text/css">
	.st0{fill:#F93887;}
</style>
<path class="st0" d="M92.4,1C64.1,1,35.9,1,7.6,1C7.6,1,7.4,1,7.2,1C6.9,1,6.9,1.1,6.9,1.5c0.1,1,0.2,2.1,0.3,3.1
	c0.2,2.6,0.4,5.3,0.6,7.9c0.3,3,0.5,6,0.8,9c0.2,2.7,0.5,5.3,0.7,7.9c0.3,3,0.5,6,0.8,9c0.3,2.9,0.5,5.9,0.8,8.9
	c0.3,3.7,0.7,7.4,1,11.1c0.3,3.3,0.6,6.7,0.9,10c0.3,3.7,0.7,7.4,1,11.1c0.3,3.1,0.5,6.2,0.8,9.3c0.1,0.4,0.2,0.5,0.5,0.6
	c10.3,2.8,20.5,5.6,30.8,8.5c1.3,0.3,2.6,0.6,3.9,1.1c0.1,0,0.2,0,0.3,0c1.7-0.5,3.3-0.9,5-1.4c9.9-2.8,19.9-5.5,29.8-8.4
	c0.4-0.1,0.5-0.3,0.5-0.6c0.3-3.3,0.6-6.7,0.9-10c0.3-3.7,0.7-7.4,1-11.1c0.3-3.3,0.6-6.7,0.9-10c0.3-3.3,0.6-6.7,0.9-10
	c0.2-2.6,0.5-5.3,0.7-7.9c0.3-3,0.5-6,0.8-9c0.3-2.9,0.5-5.9,0.8-8.9c0.3-2.9,0.5-5.9,0.8-8.9c0.2-2.6,0.5-5.2,0.7-7.8
	c0.1-0.9,0.1-1.7,0.3-2.6c0-0.5,0-0.9,0-1.4C92.8,1,92.6,1,92.4,1z M76.2,28.6c0,0.4-0.1,0.7-0.1,1.1c0,0.2-0.1,0.3-0.3,0.3h-0.1
	c-8.4,0-16.8,0-25.3,0c-0.3-0.1-0.4-0.1-0.5-0.1c-0.2,0-0.3,0-0.5,0c-4.8,0-9.5,0-14.3,0c0,0-0.1,0-0.1,0c-0.1,0.1-0.1,0.3-0.1,0.5
	c0.3,3.3,0.6,6.7,0.9,10c0.1,0.4,0.2,0.5,0.6,0.5c4.4,0,8.9,0,13.3,0c0.2,0,0.3,0,0.5,0c0,0,0-0.1,0-0.1c0.1,0,0.2,0,0.3,0
	c8.1,0,16.1,0,24.1,0c0.5,0,0.6,0.1,0.6,0.6c-0.3,3.5-0.6,6.9-0.9,10.3c-0.2,2.6-0.5,5.3-0.7,7.9c-0.3,2.9-0.5,5.9-0.8,8.9
	c-0.1,1.7-0.3,3.3-0.4,4.9c0,0.1,0,0.1,0,0.2c0,0,0,0,0,0c0,0.5-0.2,0.7-0.7,0.8c-7.1,1.9-14.2,3.9-21.3,5.9c-0.1,0-0.2,0-0.2,0
	c0,0.1,0,0.2,0,0.3h-0.2c0-0.1,0-0.2,0-0.3c-7.1-2-14.2-3.9-21.3-5.9c-0.8-0.2-0.9-0.2-0.9-1.1c-0.3-3.1-0.6-6.2-0.8-9.3
	c-0.2-2.1-0.4-4.2-0.6-6.3c0,0,0-0.1,0-0.1c0,0,0-0.1,0-0.1c-0.1-0.4,0-0.5,0.4-0.5c3.3,0,6.6,0,9.9,0c0.4,0,0.5,0.1,0.5,0.5
	c0.2,2.6,0.5,5.1,0.7,7.7c0,0.3,0,0.5,0.4,0.6c3.8,1,7.6,2.1,11.4,3.1c0.1,0.1,0.2,0.1,0.3,0.1c2.3-0.6,4.6-1.2,6.9-1.8
	c1.6-0.4,3.2-0.9,4.8-1.3c0.3-0.1,0.4-0.2,0.4-0.5c0,0,0,0,0-0.1c0.4-4.4,0.8-8.8,1.2-13c0-0.4-0.1-0.5-0.5-0.5c-4.1,0-8.2,0-12.3,0
	c-0.2,0-0.3,0-0.5,0s-0.4,0-0.6,0c-7.7,0-15.3,0-23,0c-0.4,0-0.6-0.1-0.6-0.5c-0.4-4.6-0.8-9.1-1.2-13.7c-0.4-4.9-0.9-9.9-1.3-14.8
	c-0.1-1.1-0.2-2.2-0.3-3.3c0-0.3,0.1-0.4,0.3-0.4c0.1,0,0.1,0,0.2,0h0.1h25.8h0.6h0.5h26.1H77c0,0,0,0.1,0,0.1
	c0.1,0.1,0.1,0.2,0.1,0.5C76.7,22.7,76.5,25.6,76.2,28.6z"/>
</svg>
