<?xml version="1.0" encoding="utf-8"?>
<!-- Generator: Adobe Illustrator 22.0.1, SVG Export Plug-In . SVG Version: 6.00 Build 0)  -->
<svg version="1.1" id="Layer_1" xmlns="http://www.w3.org/2000/svg" xmlns:xlink="http://www.w3.org/1999/xlink" x="0px" y="0px"
	 viewBox="0 0 100 100" style="enable-background:new 0 0 100 100;" xml:space="preserve">
<style type="text/css">
	.st0{fill:#F93887;}
</style>
<path class="st0" d="M0,0v100h100V0H0z M48.1,58c0,13.6,0,20.8-0.1,21.5c-0.8,6.4-3.8,10.7-9,12.8c-4.3,1.7-10.1,1.9-14.7,0.3
	c-4.3-1.4-7.9-4.5-10-8.7L14,83.3l4.6-2.8c2.5-1.5,4.6-2.8,4.6-2.8c0,0,0.3,0.4,0.7,1c2.1,3.5,3.8,4.8,6.8,4.8
	c2.1,0,3.3-0.4,4.3-1.4c0.7-0.7,1.1-1.5,1.4-2.7l0.2-1l0-20.5l0.1-20.4h5.7h5.7V58z M89.7,88.6c-2.7,2.6-6.2,4.2-10.9,4.9
	c-1.9,0.2-5.5,0.3-7.5,0c-7.4-1-12.9-4.5-16.4-10.4c-0.4-0.7-0.5-1-0.4-1.1c0.2-0.2,9-5.2,9.1-5.2c0,0,0.4,0.4,0.8,1
	c2.7,4,6.1,5.8,10.6,5.8c2.7,0,4.8-0.7,6.2-2.1c0.4-0.4,0.9-1,1-1.4c0.9-1.8,0.5-4.3-0.9-5.8c-1.2-1.2-2.9-2.2-7.8-4.3
	c-3.5-1.5-5.6-2.5-7.1-3.4c-5.9-3.6-8.6-8.1-8.6-14.5c0-4.3,1.3-7.7,4.2-10.5c2.7-2.7,6.4-4.3,10.8-4.6c1.7-0.1,1.9-0.1,3.6,0
	c3.6,0.3,6.3,1.1,8.9,2.8c1.4,0.9,3.4,3,4.5,4.7c0.5,0.8,1,1.4,1,1.5c0,0.1-8.4,5.5-8.7,5.6c-0.1,0-0.4-0.3-0.7-0.8
	c-0.3-0.5-1-1.3-1.5-1.8c-1.5-1.5-2.9-2.1-5.1-2.1c-2,0-3.2,0.5-4.3,1.7c-0.8,0.8-1.1,1.7-1.2,2.9c-0.1,1.6,0.3,2.8,1.3,3.9
	c1,1.1,2.6,2,7.4,4.1c6.3,2.7,9.5,4.6,11.9,7c1.3,1.3,2,2.3,2.8,3.8c1.1,2.2,1.5,4.5,1.5,7.4C94,82.2,92.6,85.8,89.7,88.6z"/>
</svg>
