<?xml version="1.0" encoding="utf-8"?>
<!-- Generator: Adobe Illustrator 22.0.1, SVG Export Plug-In . SVG Version: 6.00 Build 0)  -->
<svg version="1.1" id="Layer_1" xmlns="http://www.w3.org/2000/svg" xmlns:xlink="http://www.w3.org/1999/xlink" x="0px" y="0px"
	 viewBox="0 0 272 272" style="enable-background:new 0 0 272 272;" xml:space="preserve">
<style type="text/css">
	.st0{fill:#E8E8E8;}
	.st1{fill:#29ABE2;}
	.st2{fill:#EFAC89;}
	.st3{fill:#29637C;}
	.st4{fill:#1C465D;}
	.st5{fill:#FFFFFF;}
	.st6{fill:#46787B;}
	.st7{fill:#F4EDCB;}
	.st8{fill:none;}
	.st9{fill:#64A5BC;}
	.st10{opacity:0.15;}
	.st11{fill:#EFB89C;}
	.st12{fill:#CF9B82;}
	.st13{fill:#E48F71;}
	.st14{fill:#1B91CC;}
	.st15{fill:#AF6C48;}
	.st16{fill:#2B2B2B;}
	.st17{fill:#AA7E50;}
	.st18{opacity:0.4;fill:#1E1E1E;}
	.st19{opacity:0.21;fill:#514F4E;}
	.st20{opacity:0.61;fill:#FFFFFF;}
	.st21{fill:#B77843;}
	.st22{fill:#FF7900;}
</style>
<circle class="st0" cx="139.7" cy="138.7" r="101.5"/>
<path class="st1" d="M272,136c0,75.1-60.9,136-136,136S0,211.1,0,136S60.9,0,136,0S272,60.9,272,136z M136,40.1
	c-52.9,0-95.9,42.9-95.9,95.9s42.9,95.9,95.9,95.9s95.9-42.9,95.9-95.9S188.9,40.1,136,40.1z"/>
<g>
	<path class="st2" d="M214.3,209.2c-2.3-5.1-8.3-9.9-13-12.7c-9.9-5.8-21.1-8.7-29.5-16.9c-1.5-1.5-1.8-3.2-1.4-4.7
		c-6-2.9-11.8-5.6-16.5-7.7c-1.4-0.6-2.3-1.9-2.3-3.2v-15.5H120l-1.1,15.5c0,1.4-0.9,2.6-2.3,3.2c-4.1,1.8-9,4.1-14.1,6.6
		c-0.4,0.8-1,1.5-1.9,2.1c-5.3,3.6-10.2,7.7-15.4,11.3c-4.9,3.3-10,6.1-14.9,9.4c-5.1,3.4-9.8,7.3-11.6,13.3c-0.7,2.5-1.3,5-2.1,7.4
		h159.1C215.5,214.6,215.5,211.9,214.3,209.2z"/>
	<path class="st3" d="M223.1,218.9c-1.1-4.2-171.1-7.4-172.2-2.3c-0.5,2.5-1.3,11.1-2,19.1c6.8,4.9,13.5,10.1,19.4,16.1h130
		c8-8.1,16.9-15.2,26.1-21.9L223.1,218.9z"/>
	<g>
		<path class="st4" d="M120.7,165.1v0.1c0,1.4-0.8,2.6-2.2,3.2c-4.1,1.9-8,4.3-13.3,7c-5.8-0.7-16-4.5-15.5-6.5
			c0.6-2.3,26.7-4.4,30.2-3.8C120,165.1,120.3,165,120.7,165.1z"/>
		<path class="st4" d="M168.5,175.4c-3.7-1.9-7.3-3.7-10.5-5.2c-1.4-0.6-2.7-1.3-3.9-1.8c-1.3-0.6-2.2-1.9-2.2-3.2v-0.1
			c0.4,0,0.7,0,0.7,0c3.5-0.6,30.7,1.5,31.3,3.8C184.5,170.8,174.3,174.7,168.5,175.4z"/>
		<path class="st5" d="M220.9,218h-168c1.5-12.6,6.4-17.3,11.3-20.5c7.8-5,33.3-19,50.4-27.3c3.2,7.7,12,11.3,22.3,11.3
			s19.1-3.5,22.3-11.3c17.1,8.2,42.6,22.3,50.4,27.3C214.4,200.6,219.4,205.4,220.9,218z"/>
		<g>
			<path class="st3" d="M223.1,218.5H50.6c2.8-18.3,11-21,17.4-24.2c4.2-2.1,20.8-11.3,33.3-18.2c7.6,1.1,25.6,3.4,25.6,3.4l10,12
				l9.6-11.5c0,0,17.9-3.6,23.8-5.2c12.6,7,31.1,17.2,35.6,19.4C212.1,197.4,220.3,200.2,223.1,218.5z"/>
		</g>
		<rect x="136" y="190.3" class="st6" width="1.3" height="61.5"/>
		<path class="st4" d="M180.2,164.7c0,0,7.9-1.1,9.3,6.3c0.8,4.2,0.8,13.2-1.1,13.8c-3.9,1.3-37.3,0.5-42.1,1.6
			c-4.8,1.1-9.5,5.1-9.5,5.1s0.5-10.1,12.1-10.8c11.5-0.6,28.4-3.2,30.4-6.8C181.4,170.4,180.2,164.7,180.2,164.7z"/>
		<path class="st3" d="M137.9,185.3c0.9-1.9,4.6-8,17-8.8c21.5-1.5,27.3-6.9,23.1-8.3c-4.1-1.5-26.1-3.1-26.1-3.1s-0.1-1.2,0-2.1
			c0.9-0.6,1.5-1.3,3.2-1.6c9.3-1.7,36,0.3,34.1,10.9c-2.8,15.8-42,10.1-47,13.3c-5,3.2-5.5,5.9-5.5,5.9S137,187.3,137.9,185.3z"/>
		<path class="st4" d="M93.6,164.7c0,0-7.9-1.1-9.3,6.3c-0.8,4.2-0.8,13.2,1.1,13.8c3.9,1.3,37.3,0.5,42.1,1.6
			c4.8,1.1,9.5,5.1,9.5,5.1s-0.5-10.1-12.1-10.8c-11.5-0.6-28.4-3.2-30.4-6.8C92.3,170.4,93.6,164.7,93.6,164.7z"/>
		<path class="st3" d="M135.9,185.3c-0.9-1.9-4.6-8-17-8.8c-21.5-1.5-27.3-6.9-23.1-8.3c4.1-1.5,25-3.1,25-3.1s0.1-1.2,0-2.1
			c-0.9-0.6-1.5-1.3-3.2-1.6c-9.3-1.7-34.9,0.3-33,10.9c2.8,15.8,42,10.1,47,13.3c5,3.2,5.5,5.9,5.5,5.9S136.7,187.3,135.9,185.3z"
			/>
		<path class="st7" d="M148.1,212c-0.5,0-0.8-0.3-0.8-0.7v-23.1c0-5.1,4.8-6.9,5-6.9c0.4-0.1,0.9,0,1.1,0.4c0.2,0.4,0,0.8-0.5,1
			c-0.2,0.1-4,1.5-4,5.5v23.1C148.9,211.6,148.5,212,148.1,212z"/>
		<path class="st7" d="M125.7,212c-0.5,0-0.8-0.3-0.8-0.7v-23.1c0-4.1-3.8-5.5-4-5.5c-0.4-0.1-0.6-0.6-0.5-1
			c0.2-0.4,0.6-0.6,1.1-0.4c0.2,0.1,5,1.8,5,6.9v23.1C126.5,211.6,126.1,212,125.7,212z"/>
		<path class="st5" d="M138,192.6c0-0.6-0.5-1-1.1-1c-0.6,0-1.1,0.5-1.1,1c0,0.1,0,0.1,0,0.2c0,0,0,0.1,0,0.1v4.5
			c0,0.3,0.2,0.5,0.6,0.5h1.2c0.3,0,0.6-0.2,0.6-0.5v-4.5c0,0,0-0.1,0-0.1C138,192.7,138,192.6,138,192.6z"/>
	</g>
</g>
<g>
	<path class="st8" d="M189.1,56.2c0,0,0,0.1,0,0.1c0.8,6.6-37.4-5.9-37.4-5.9l-64.5,3.1C59,70.2,40.1,100.9,40.1,136
		c0,52.9,42.9,95.9,95.9,95.9s95.9-42.9,95.9-95.9C231.9,102.7,214.9,73.3,189.1,56.2z"/>
	<path class="st9" d="M136,0C60.9,0,0,60.9,0,136s60.9,136,136,136s136-60.9,136-136S211.1,0,136,0z M136,231.9
		c-52.9,0-95.9-42.9-95.9-95.9c0-35.1,18.9-65.8,47.1-82.5l-0.4,0c0,0,5.6-17.3,30-25.1c24.4-7.8,43.4,2.2,47.7,5.6
		c4.2,3.3,8.5,8.9,9.5,12.2c5.3-1.1,14.2,3.4,15.1,10c25.8,17.2,42.8,46.5,42.8,79.8C231.9,188.9,188.9,231.9,136,231.9z"/>
	<path class="st9" d="M189.1,56.2c-0.9-6.5-9.8-11.1-15.1-10c-1.1-3.3-5.3-8.9-9.5-12.2c-4.2-3.3-23.3-13.4-47.7-5.6
		c-24.4,7.8-30,25.1-30,25.1l0.4,0c14.3-8.5,31-13.3,48.8-13.3C155.6,40.1,173.9,46,189.1,56.2z"/>
	<path class="st10" d="M189.1,56.2c-0.9-6.5-9.8-11.1-15.1-10c-1.1-3.3-5.3-8.9-9.5-12.2c-4.2-3.3-23.3-13.4-47.7-5.6
		c-24.4,7.8-30,25.1-30,25.1l0.4,0c14.3-8.5,31-13.3,48.8-13.3C155.6,40.1,173.9,46,189.1,56.2z"/>
</g>
<g>
	<g>
		<g>
			<path class="st11" d="M177,94c0,0,5.8-8.7,12.2-5.2c6.4,3.6,0.9,24.1-12.2,23.9V94z"/>
			<path class="st12" d="M182.6,102.8c-0.7,0.8-2.6,2.9-3.4,0.7c-0.2-0.5,2-1.3,2.2-2.7c0.1-0.4-0.9-1.3-1-1.6
				c-0.1-0.7,0.5-1.4,1.8-1.4C184.5,97.8,183.5,101.8,182.6,102.8z"/>
			<path class="st12" d="M181.8,92.1c0,0,2.1-2.1,5.1-0.8c4.1,1.8,1.4,9.6,1.4,9.6s0.5-5.2-1.3-7.8C186,91.6,183.7,91.1,181.8,92.1z
				"/>
		</g>
		<g>
			<path class="st11" d="M95.3,94c0,0-5.8-8.7-12.2-5.2c-6.4,3.6-0.9,24.1,12.2,23.9V94z"/>
			<path class="st12" d="M89.6,102.8c0.7,0.8,2.6,2.9,3.4,0.7c0.2-0.5-2-1.3-2.2-2.7c-0.1-0.4,0.9-1.3,1-1.6
				c0.1-0.7-0.5-1.4-1.8-1.4C87.8,97.8,88.8,101.8,89.6,102.8z"/>
			<path class="st12" d="M90.5,92.1c0,0-2.1-2.1-5.1-0.8c-4.1,1.8-1.4,9.6-1.4,9.6s-0.5-5.2,1.3-7.8C86.3,91.6,88.6,91.1,90.5,92.1z
				"/>
		</g>
		<path class="st11" d="M182.9,100.4c0,38-14.4,63.2-46.8,63.2s-46.8-25.2-46.8-63.2c0-38,20.9-62.5,46.8-62.5
			S182.9,62.4,182.9,100.4z"/>
		<path class="st13" d="M136.5,92.3c-6.6,0-13.3,18.6-13.3,24.6c0,6,13.3,5.2,13.3,5.2s13.3,0.7,13.3-5.2
			C149.8,111,143.2,92.3,136.5,92.3z"/>
		<path class="st14" d="M161.9,93c0,1.6-1.5,2.9-3.3,2.9s-3.3-1.3-3.3-2.9c0-1.6,1.5-2.9,3.3-2.9S161.9,91.4,161.9,93z"/>
		<path class="st14" d="M116.9,93c0,1.6-1.5,2.9-3.3,2.9c-1.8,0-3.3-1.3-3.3-2.9c0-1.6,1.5-2.9,3.3-2.9
			C115.5,90.2,116.9,91.4,116.9,93z"/>
		<path class="st15" d="M136.2,137.1c-9.3,0-12.2-1.7-12.3-1.7c-0.2-0.1-0.1-0.3,0.1-0.3c0.2-0.1,0.6-0.1,0.8,0
			c0.1,0,2.8,1.5,11.5,1.5c8.8,0,12.7-1.6,12.8-1.6c0.2-0.1,0.6-0.1,0.8,0c0.2,0.1,0.2,0.3,0,0.3
			C149.5,135.4,145.4,137.1,136.2,137.1z"/>
		<path class="st16" d="M148.3,87.2c-0.4,0-0.8-0.2-1.1-0.5c-0.4-0.5-0.2-1.2,0.4-1.5c0.4-0.2,11.1-5.8,22,0c0.6,0.3,0.8,1,0.4,1.5
			c-0.4,0.5-1.1,0.7-1.7,0.4c-9.6-5.1-19.3-0.1-19.4,0C148.7,87.1,148.5,87.2,148.3,87.2z"/>
		<path class="st16" d="M103.3,87.2c-0.4,0-0.8-0.2-1.1-0.5c-0.4-0.5-0.2-1.2,0.4-1.5c10.9-5.8,21.5-0.2,22,0c0.6,0.3,0.8,1,0.4,1.5
			c-0.4,0.5-1.1,0.7-1.7,0.4c-0.4-0.2-9.8-5.1-19.4,0C103.8,87.1,103.5,87.2,103.3,87.2z"/>
		<g>
			<g>
				<path class="st17" d="M169.4,57.6c0,0,5.1,5.2,5.6,9.6c0.5,4.4-0.6,6.7,0.4,8c1,1.3,4.3,6.9,5,11c0.7,4.1,1.7,16.3,1.7,16.3
					s3.8-14.4,5-19c1.2-4.5,2.6-20.2,1.2-25.9c-1.4-5.7-8.7-8.9-8.7-8.9S165.8,44,169.4,57.6z"/>
			</g>
		</g>
		<path class="st17" d="M96.6,82.6c0.4-0.8,7-16.4,32.6-17.2s26.4-1.1,40.3-7.8c0,0,8.8-8.4-2.9-18.2c-11.7-9.8-29.6-11.9-49.2-7.6
			c-15.9,3.6-31,18.6-33,36.1C83.5,75,87.5,87,89,92.9c1,4,0.7,4.9,0.7,4.9S93.4,89.2,96.6,82.6z"/>
		<path class="st18" d="M169.2,54.1c0,0-32.8-28.7-67.3,0C101.9,54.1,132.5,23.1,169.2,54.1z"/>
		<path class="st18" d="M168,55.4c-1,0-14.7,3.6-35.3,4.3c-20.7,0.6-30.2,7.2-35.3,14.5c0,0,5.3-14,34.9-15.2
			C152.6,58.1,168,55.4,168,55.4z"/>
		<path class="st18" d="M170.4,52.2c0,0-11.4-12.1-23.3-13C147.1,39.2,164.4,38.4,170.4,52.2z"/>
		<path class="st18" d="M159.7,52.9c0,0-34.7-13.8-63.7,14.5C96.1,67.3,119.9,37.5,159.7,52.9z"/>
		<g>
			<g>
				<path class="st17" d="M174.3,48.3c-0.4-0.3-0.9-0.4-1.3-0.7c-0.3-0.2-0.6-0.6-0.8-0.9c-0.6-0.8-1.2-1.7-1.8-2.6
					c-1-1.7-3.6-0.1-2.6,1.5c0.6,1,1.3,2,2,2.9c0.3,0.4,0.6,0.8,1,1.2c0.2,0.2,0.5,0.4,0.8,0.6c0.1,0,0.7,0.2,0.6,0.2
					c0.6,0.5,1.5,0.6,2.1,0C174.8,49.9,174.9,48.8,174.3,48.3L174.3,48.3z"/>
			</g>
		</g>
	</g>
</g>
<path class="st19" d="M117.9,164c0,0,13.5,9.3,37,1.3c-0.6-1.2-1.5-3.4-1.5-3.4l-31.2-2.5l-3.1,2.4L117.9,164z"/>
<g>
	<path class="st20" d="M174.1,100c-0.8,2-2.5,3.7-4.5,4.3c-2,0.6-7.8,1.3-10.4,1.2c-2.5,0-8.7,0.1-11.7-3.1c-2.6-2.7-4.8-9-5.4-12.3
		c-0.6-3.4,0.3-4.7,2.1-5.5c1.8-0.8,8.2-2.6,15.3-2.6c8.4,0,15.4,0.5,15.9,3.2C176.1,88.1,174.9,98,174.1,100z"/>
	<path class="st20" d="M99.7,100c0.8,2,2.5,3.7,4.5,4.3c2,0.6,7.8,1.3,10.4,1.2c2.5,0,8.7,0.1,11.7-3.1c2.6-2.7,4.8-9,5.4-12.3
		s-0.3-4.7-2.1-5.5c-1.8-0.8-8.2-2.6-15.3-2.6c-8.4,0-15.4,0.5-15.9,3.2C97.7,88.1,98.9,98,99.7,100z"/>
	<path class="st16" d="M181.7,81.7c-0.4-0.3-1.3-0.4-2.7-0.6c-1.9-0.2-10.8-1.4-19-1.4c-8.2,0-19.9,2.7-23.2,2.7
		c-3.2,0-15-2.7-23.2-2.7c-8.2,0-17.1,1.1-19,1.4c-1.1,0.1-1.8,0.3-2.3,0.4v6.5c0.7,0.3,2,0.5,2.7,2.2c1.2,3.1,2.2,9.6,3.3,11.6
		c1.1,2,3.8,4.7,12.6,5.1c8.8,0.4,12.9-0.8,15.7-3c2.8-2.3,5.6-9.7,7.5-13.5c1.1-2.2,2.6-2.1,2.6-2.1s1.5-0.1,2.6,2.1
		c1.9,3.9,4.7,11.3,7.5,13.5c2.8,2.3,6.9,3.4,15.7,3c8.8-0.4,11.5-3.1,12.6-5.1c1.1-2,2.1-8.5,3.3-11.6c0.9-2.2,2.7-1.9,3.1-2.5
		V81.7z M131.6,90.1c-0.6,3.4-2.8,9.6-5.4,12.3c-3,3.2-9.2,3-11.7,3.1c-2.5,0-8.3-0.6-10.3-1.2c-2-0.6-3.7-2.3-4.5-4.3
		c-0.8-2-2-11.9-1.4-14.8c0.5-2.8,7.5-3.2,15.9-3.2c7.1,0,13.5,1.7,15.3,2.5C131.2,85.4,132.1,86.8,131.6,90.1z M174.1,100
		c-0.8,2-2.5,3.7-4.5,4.3c-2,0.6-7.8,1.3-10.3,1.2c-2.5,0-8.7,0.1-11.7-3.1c-2.6-2.7-4.8-8.9-5.4-12.3c-0.6-3.4,0.3-4.7,2.1-5.6
		c1.8-0.8,8.2-2.5,15.3-2.5c8.4,0,15.4,0.5,15.9,3.2C176.1,88.1,174.9,98,174.1,100z"/>
</g>
<path class="st2" d="M159.4,170l-4.2-10.6h-37.2l-3.2,10.6l11.7,3.2C126.4,173.2,154.1,179.6,159.4,170z"/>
<path class="st10" d="M116.8,163.3c0,0,12.9,7.8,20.3,7.8s17.7-6.7,19.5-8.1c-0.7-1.8-1.6-2.8-1.6-2.8l-20,0.3l-17.4-0.3
	L116.8,163.3z"/>
<g id="Beard_7_">
	<g>
		<path class="st21" d="M174.9,132.6c-2.5,4.1-13.3,6.1-14.7,8.4c-1.5,2.3-2.4,8.6-3.9,10c-1.6,1.4-15,2.1-16.1,1s-2.1-4.6-0.8-5.9
			c1.3-1.2,2.6-3.7,2.6-3.7s-2.6,0.6-5.9,0.6c-3.3,0-5.9-0.6-5.9-0.6s1.3,2.5,2.6,3.7c1.3,1.2,0.3,4.7-0.8,5.9
			c-1.1,1.1-14.5,0.6-16.1-0.8c-1.6-1.4-2.5-7.8-3.9-10.1c-1.5-2.3-12.3-4.2-14.7-8.4c-2.5-4.1-7.9-21.8-7.9-21.8
			s-0.2,10.9,1.9,19.6c2.1,8.8,8.6,19.3,15.5,25.4c6.8,6.1,24.9,9.9,29.4,9.9c4.5,0,22.6-3.8,29.4-9.9c6.8-6.1,13.3-16.9,15.4-25.7
			c2.1-8.8,2-19.4,2-19.4S177.3,128.5,174.9,132.6z"/>
	</g>
</g>
<path class="st21" d="M163.9,133.5c-3-6.6-14.7-9.5-19.5-9.7c-4.8-0.2-7.8,1.7-7.8,1.7s-3-1.9-7.8-1.7c-4.8,0.2-16.5,3.2-19.5,9.7
	c-3,6.6,3.4,12.2,4,12.2c1.1,0,0.1-5.8,4.8-11c3.7-4.2,12-3.3,14.6-3.8c2.2-0.5,3.6-1.5,4-1.9c0.4,0.4,1.8,1.4,4,1.9
	c2.6,0.6,10.8-0.3,14.6,3.8c4.7,5.2,3.7,11,4.8,11C160.5,145.7,166.9,140,163.9,133.5z"/>
<g>
	<g>
		<path class="st21" d="M156,157.7c-2.8,1.1-5.5,2.4-8.2,3.9c-3.2,1.9-6.5,4.5-10.4,4.5c-5.6,0.1-15.3-3.6-19.3-7.5
			c-0.5,0.8-1,1.7-1.5,2.5c5.9,1.5,11.9,3,17.9,4.4c2.3,0.6,7.1,2.6,9,0.2c0.7-0.9,0.4-2.7-1.1-2.6c-3.2,0.2-6.4,0.5-9.6,0.9
			c0.4,0.9,0.7,1.7,1.1,2.6c0.1-0.1,0.2-0.2,0.3-0.3c1.4-1.4-0.8-3.5-2.1-2.1c-0.1,0.1-0.2,0.2-0.3,0.3c-0.8,0.8-0.3,2.7,1.1,2.6
			c3.2-0.4,6.4-0.7,9.6-0.9c-0.4-0.9-0.7-1.7-1.1-2.6c-0.9,1.1-11.2-2.2-12.3-2.5c-3.9-1-7.7-1.9-11.6-2.9c-1.4-0.4-2.6,1.4-1.5,2.5
			c4.5,4.4,13.4,7.5,19.5,8.3c7.8,1,14.4-5.6,21.2-8.3C158.6,159.9,157.8,157,156,157.7L156,157.7z"/>
	</g>
</g>
<path class="st22" d="M181.7,81.8c0,0,5.4,5.3,5.9,6.4c-1.1,0-2.1,0-2.1,0l-3.8-1V81.8z"/>
<path class="st22" d="M92.4,81.8L86.8,88c0,0,1.4,0.1,2.4,0.7c1.1,0.6,3.2-1.1,3.2-1.1V81.8z"/>
</svg>
