<?xml version="1.0" encoding="utf-8"?>
<!-- Generator: Adobe Illustrator 22.0.1, SVG Export Plug-In . SVG Version: 6.00 Build 0)  -->
<svg version="1.1" id="Layer_1" xmlns="http://www.w3.org/2000/svg" xmlns:xlink="http://www.w3.org/1999/xlink" x="0px" y="0px"
	 viewBox="0 0 272 272" style="enable-background:new 0 0 272 272;" xml:space="preserve">
<style type="text/css">
	.st0{fill:#EFE7DF;}
	.st1{fill:#29ABE2;}
	.st2{fill:#EFAC89;}
	.st3{fill:#29637C;}
	.st4{fill:#1C465D;}
	.st5{fill:#FFFFFF;}
	.st6{fill:#46787B;}
	.st7{fill:#F4EDCB;}
	.st8{fill:none;}
	.st9{fill:#64A5BC;}
	.st10{opacity:0.15;}
	.st11{fill:#EFB89C;}
	.st12{fill:#CF9B82;}
	.st13{fill:#E48F71;}
	.st14{fill:#1B91CC;}
	.st15{fill:#AF6C48;}
	.st16{fill:#2B2B2B;}
	.st17{fill:#AA7E50;}
	.st18{opacity:0.4;fill:#1E1E1E;}
	.st19{opacity:0.21;fill:#514F4E;}
	.st20{opacity:0.61;fill:#FFFFFF;}
	.st21{fill:#B77843;}
</style>
<circle class="st0" cx="139.5" cy="138.5" r="95.5"/>
<path class="st1" d="M264,136c0,70.7-57.3,128-128,128S8,206.7,8,136S65.3,8,136,8S264,65.3,264,136z M136,45.8
	c-49.8,0-90.2,40.4-90.2,90.2s40.4,90.2,90.2,90.2s90.2-40.4,90.2-90.2S185.8,45.8,136,45.8z"/>
<g>
	<path class="st2" d="M209.7,204.9c-2.2-4.8-7.8-9.3-12.2-11.9c-9.3-5.5-19.8-8.2-27.8-15.9c-1.4-1.4-1.7-3-1.4-4.5
		c-5.7-2.8-11.1-5.3-15.5-7.2c-1.3-0.6-2.2-1.7-2.2-3v-14.6h-29.8l-1,14.6c0,1.3-0.8,2.5-2.2,3c-3.9,1.7-8.5,3.8-13.3,6.2
		c-0.4,0.8-0.9,1.4-1.8,2c-5,3.4-9.6,7.3-14.5,10.7c-4.6,3.1-9.4,5.7-14,8.9c-4.8,3.2-9.2,6.8-10.9,12.5c-0.7,2.3-1.3,4.7-2,6.9
		h149.7C210.8,210,210.9,207.4,209.7,204.9z"/>
	<path class="st3" d="M218,214c-1-4-161-7-162-2.1c-0.5,2.4-1.2,10.4-1.8,18c6.4,4.6,12.7,9.5,18.3,15.2h122.4
		c7.5-7.7,15.9-14.3,24.6-20.6L218,214z"/>
	<g>
		<path class="st4" d="M121.6,163.3L121.6,163.3c0,1.4-0.8,2.5-2.1,3.1c-3.9,1.8-7.5,4.1-12.5,6.6c-5.5-0.6-15.1-4.3-14.6-6.1
			c0.6-2.2,25.1-4.2,28.4-3.6C121,163.4,121.2,163.3,121.6,163.3z"/>
		<path class="st4" d="M166.6,173.1c-3.5-1.8-6.8-3.4-9.9-4.9c-1.3-0.6-2.5-1.2-3.6-1.7c-1.3-0.6-2.1-1.7-2.1-3v-0.1
			c0.4,0,0.7,0,0.7,0c3.3-0.6,28.9,1.4,29.5,3.6C181.6,168.8,172,172.4,166.6,173.1z"/>
		<path class="st5" d="M215.9,213.1H57.8c1.4-11.8,6.1-16.3,10.7-19.3c7.3-4.7,31.3-17.9,47.4-25.7c3,7.3,11.3,10.6,21,10.6
			s18-3.3,21-10.6c16.1,7.7,40.1,21,47.4,25.7C209.8,196.8,214.5,201.3,215.9,213.1z"/>
		<g>
			<path class="st3" d="M218,213.6H55.7c2.6-17.2,10.4-19.8,16.4-22.8c4-2,19.6-10.6,31.3-17.1c7.2,1,24.1,3.2,24.1,3.2l9.4,11.3
				l9-10.8c0,0,16.8-3.4,22.4-4.9c11.9,6.6,29.2,16.2,33.5,18.3C207.6,193.8,215.4,196.4,218,213.6z"/>
		</g>
		<rect x="136" y="187.1" class="st6" width="1.3" height="57.9"/>
		<path class="st4" d="M177.6,163c0,0,7.4-1.1,8.8,5.9c0.8,4,0.8,12.4-1.1,13c-3.7,1.2-35.1,0.5-39.6,1.5c-4.5,1-8.9,4.8-8.9,4.8
			s0.5-9.5,11.4-10.1c10.8-0.6,26.7-3,28.6-6.4C178.8,168.4,177.6,163,177.6,163z"/>
		<path class="st3" d="M137.8,182.4c0.8-1.8,4.4-7.5,16-8.3c20.2-1.4,25.6-6.5,21.8-7.9c-3.9-1.4-24.5-2.9-24.5-2.9s-0.1-1.1,0-2
			c0.8-0.6,1.4-1.2,3-1.5c8.8-1.6,33.9,0.3,32.1,10.3c-2.6,14.9-39.5,9.5-44.2,12.6c-4.7,3-5.1,5.6-5.1,5.6S137,184.3,137.8,182.4z"
			/>
		<path class="st4" d="M96.1,163c0,0-7.4-1.1-8.8,5.9c-0.8,4-0.8,12.4,1.1,13c3.7,1.2,35.1,0.5,39.6,1.5c4.5,1,8.9,4.8,8.9,4.8
			s-0.5-9.5-11.4-10.1c-10.8-0.6-26.7-3-28.6-6.4C94.9,168.4,96.1,163,96.1,163z"/>
		<path class="st3" d="M135.9,182.4c-0.8-1.8-4.4-7.5-16-8.3c-20.2-1.4-25.6-6.5-21.8-7.9c3.9-1.4,23.5-2.9,23.5-2.9s0.1-1.1,0-2
			c-0.8-0.6-1.4-1.2-3-1.5c-8.8-1.6-32.9,0.3-31.1,10.3c2.6,14.9,39.5,9.5,44.2,12.6c4.7,3,5.1,5.6,5.1,5.6S136.7,184.3,135.9,182.4
			z"/>
		<path class="st7" d="M147.4,207.5c-0.4,0-0.8-0.3-0.8-0.7V185c0-4.8,4.6-6.5,4.7-6.5c0.4-0.1,0.8,0,1,0.4c0.2,0.4,0,0.8-0.4,0.9
			c-0.2,0.1-3.8,1.4-3.8,5.2v21.8C148.1,207.2,147.8,207.5,147.4,207.5z"/>
		<path class="st7" d="M126.3,207.5c-0.4,0-0.8-0.3-0.8-0.7V185c0-3.8-3.6-5.2-3.8-5.2c-0.4-0.1-0.6-0.5-0.4-0.9
			c0.2-0.4,0.6-0.5,1-0.4c0.2,0.1,4.7,1.7,4.7,6.5v21.8C127.1,207.2,126.7,207.5,126.3,207.5z"/>
		<path class="st5" d="M137.9,189.2c0-0.5-0.5-1-1.1-1c-0.6,0-1.1,0.4-1.1,1c0,0.1,0,0.1,0,0.1c0,0,0,0.1,0,0.1v4.3
			c0,0.3,0.2,0.5,0.5,0.5h1.1c0.3,0,0.5-0.2,0.5-0.5v-4.3c0,0,0-0.1,0-0.1C137.9,189.3,137.9,189.3,137.9,189.2z"/>
	</g>
</g>
<path class="st4" d="M272,136c0,75.1-60.9,136-136,136S0,211.1,0,136S60.9,0,136,0S272,60.9,272,136z M136,40.1
	c-52.9,0-95.9,42.9-95.9,95.9s42.9,95.9,95.9,95.9s95.9-42.9,95.9-95.9S188.9,40.1,136,40.1z"/>
<g>
	<path class="st8" d="M186,60.9c0,0,0,0.1,0,0.1c0.7,6.2-35.2-5.6-35.2-5.6l-60.7,2.9C63.6,74,45.8,102.9,45.8,136
		c0,49.8,40.4,90.2,90.2,90.2s90.2-40.4,90.2-90.2C226.2,104.6,210.2,77,186,60.9z"/>
	<path class="st9" d="M136,8C65.3,8,8,65.3,8,136s57.3,128,128,128s128-57.3,128-128S206.7,8,136,8z M136,226.2
		c-49.8,0-90.2-40.4-90.2-90.2c0-33.1,17.8-62,44.3-77.7l-0.4,0c0,0,5.3-16.3,28.2-23.6c22.9-7.3,40.9,2.1,44.9,5.2
		c4,3.1,8,8.4,9,11.5c5-1,13.4,3.2,14.2,9.4c24.3,16.2,40.3,43.8,40.3,75.1C226.2,185.8,185.8,226.2,136,226.2z"/>
	<path class="st9" d="M186,60.9c-0.8-6.1-9.3-10.4-14.2-9.4c-1-3.1-5-8.4-9-11.5c-4-3.1-21.9-12.6-44.9-5.2
		C95,42.1,89.7,58.3,89.7,58.3l0.4,0c13.5-8,29.2-12.6,45.9-12.6C154.5,45.8,171.7,51.3,186,60.9z"/>
	<path class="st10" d="M186,60.9c-0.8-6.1-9.3-10.4-14.2-9.4c-1-3.1-5-8.4-9-11.5c-4-3.1-21.9-12.6-44.9-5.2
		C95,42.1,89.7,58.3,89.7,58.3l0.4,0c13.5-8,29.2-12.6,45.9-12.6C154.5,45.8,171.7,51.3,186,60.9z"/>
</g>
<g>
	<g>
		<g>
			<path class="st11" d="M174.6,96.4c0,0,5.5-8.2,11.5-4.9c6,3.3,0.8,22.7-11.5,22.4V96.4z"/>
			<path class="st12" d="M179.9,104.8c-0.6,0.8-2.5,2.7-3.2,0.7c-0.2-0.4,1.9-1.3,2.1-2.5c0.1-0.4-0.9-1.2-0.9-1.5
				c-0.1-0.6,0.5-1.4,1.7-1.4C181.6,100,180.7,103.8,179.9,104.8z"/>
			<path class="st12" d="M179.1,94.7c0,0,2-2,4.8-0.8c3.9,1.7,1.4,9,1.4,9s0.5-4.9-1.2-7.4C183.1,94.2,180.9,93.7,179.1,94.7z"/>
		</g>
		<g>
			<path class="st11" d="M97.7,96.4c0,0-5.5-8.2-11.5-4.9c-6,3.3-0.8,22.7,11.5,22.4V96.4z"/>
			<path class="st12" d="M92.4,104.8c0.6,0.8,2.5,2.7,3.2,0.7c0.2-0.4-1.9-1.3-2.1-2.5c-0.1-0.4,0.9-1.2,0.9-1.5
				c0.1-0.6-0.5-1.4-1.7-1.4C90.6,100,91.6,103.8,92.4,104.8z"/>
			<path class="st12" d="M93.2,94.7c0,0-2-2-4.8-0.8c-3.9,1.7-1.4,9-1.4,9s-0.5-4.9,1.2-7.4C89.2,94.2,91.4,93.7,93.2,94.7z"/>
		</g>
		<path class="st11" d="M180.2,102.5c0,35.8-13.5,59.5-44,59.5s-44-23.7-44-59.5c0-35.8,19.7-58.9,44-58.9S180.2,66.7,180.2,102.5z"
			/>
		<path class="st13" d="M136.5,94.9c-6.2,0-12.5,17.5-12.5,23.2c0,5.6,12.5,4.9,12.5,4.9s12.5,0.7,12.5-4.9
			C149,112.4,142.8,94.9,136.5,94.9z"/>
		<path class="st14" d="M160.4,95.6c0,1.5-1.4,2.7-3.1,2.7c-1.7,0-3.1-1.2-3.1-2.7c0-1.5,1.4-2.7,3.1-2.7
			C159,92.8,160.4,94.1,160.4,95.6z"/>
		<path class="st14" d="M118.1,95.6c0,1.5-1.4,2.7-3.1,2.7c-1.7,0-3.1-1.2-3.1-2.7c0-1.5,1.4-2.7,3.1-2.7
			C116.7,92.8,118.1,94.1,118.1,95.6z"/>
		<path class="st15" d="M136.1,137c-8.8,0-11.5-1.6-11.6-1.6c-0.2-0.1-0.1-0.2,0.1-0.3c0.2-0.1,0.5-0.1,0.7,0c0,0,2.6,1.4,10.8,1.4
			c8.3,0,12-1.5,12-1.5c0.2-0.1,0.5-0.1,0.7,0c0.2,0.1,0.2,0.2,0,0.3C148.7,135.5,144.9,137,136.1,137z"/>
		<path class="st16" d="M147.6,90c-0.4,0-0.8-0.2-1-0.5c-0.3-0.5-0.2-1.1,0.4-1.4c0.4-0.2,10.5-5.5,20.7,0c0.6,0.3,0.7,0.9,0.4,1.4
			c-0.3,0.5-1.1,0.6-1.6,0.3c-9-4.8-18.1,0-18.2,0C148,90,147.8,90,147.6,90z"/>
		<path class="st16" d="M105.2,90c-0.4,0-0.8-0.2-1-0.5c-0.3-0.5-0.2-1.1,0.4-1.4c10.2-5.5,20.3-0.2,20.7,0c0.6,0.3,0.7,0.9,0.4,1.4
			c-0.3,0.5-1.1,0.6-1.6,0.3c-0.4-0.2-9.3-4.8-18.2,0C105.7,90,105.4,90,105.2,90z"/>
		<g>
			<g>
				<path class="st17" d="M167.5,62.2c0,0,4.8,4.9,5.3,9.1c0.5,4.1-0.6,6.3,0.3,7.5c0.9,1.2,4.1,6.5,4.7,10.4
					c0.7,3.8,1.6,15.4,1.6,15.4s3.6-13.6,4.7-17.8c1.1-4.2,2.5-19,1.1-24.3c-1.4-5.3-8.2-8.4-8.2-8.4S164.1,49.4,167.5,62.2z"/>
			</g>
		</g>
		<path class="st17" d="M98.9,85.8c0.4-0.7,6.6-15.4,30.6-16.2c24-0.8,24.9-1,37.9-7.3c0,0,8.3-7.9-2.7-17.1
			c-11-9.2-27.9-11.2-46.3-7.1c-15,3.3-29.2,17.5-31.1,33.9c-0.8,6.6,3,17.9,4.5,23.4c1,3.8,0.7,4.6,0.7,4.6S95.9,92,98.9,85.8z"/>
		<path class="st18" d="M167.3,59c0,0-30.9-27-63.3,0C103.9,59,132.7,29.7,167.3,59z"/>
		<path class="st18" d="M166.1,60.2c-0.9,0-13.8,3.4-33.3,4c-19.4,0.6-28.5,6.8-33.3,13.6c0,0,5-13.2,32.8-14.3
			C151.6,62.7,166.1,60.2,166.1,60.2z"/>
		<path class="st18" d="M168.4,57.2c0,0-10.7-11.4-22-12.2C146.4,44.9,162.7,44.1,168.4,57.2z"/>
		<path class="st18" d="M158.3,57.8c0,0-32.7-13-59.9,13.6C98.4,71.4,120.8,43.3,158.3,57.8z"/>
		<g>
			<g>
				<path class="st17" d="M172.1,53.4c-0.2-0.1-0.4-0.3-0.6-0.4c-0.2-0.1-0.5-0.1-0.7-0.3c-0.2-0.2-0.5-0.6-0.7-0.9
					c-0.6-0.8-1.1-1.6-1.6-2.4c-1-1.7-3.6-0.1-2.6,1.5c0.6,1,1.2,1.9,1.9,2.8c0.3,0.4,0.6,0.8,0.9,1.1c0.2,0.2,0.5,0.4,0.7,0.5
					c0.1,0,0.7,0.3,0.5,0.2c0.6,0.5,1.5,0.6,2.1,0C172.6,55,172.7,53.9,172.1,53.4L172.1,53.4z"/>
			</g>
		</g>
	</g>
</g>
<path class="st19" d="M118.9,162.4c0,0,12.7,8.8,34.9,1.2c-0.6-1.2-1.4-3.2-1.4-3.2L123,158l-2.9,2.2L118.9,162.4z"/>
<g>
	<path class="st20" d="M171.9,102.1c-0.8,1.9-2.3,3.4-4.2,4c-1.9,0.6-7.4,1.2-9.7,1.1c-2.4,0-8.2,0.1-11-2.9
		c-2.4-2.6-4.6-8.4-5.1-11.6c-0.5-3.2,0.3-4.4,2-5.2c1.7-0.8,7.7-2.4,14.4-2.4c7.9,0,14.5,0.4,15,3
		C173.7,90.9,172.6,100.3,171.9,102.1z"/>
	<path class="st20" d="M101.8,102.1c0.8,1.9,2.3,3.4,4.2,4c1.9,0.6,7.4,1.2,9.7,1.1c2.4,0,8.2,0.1,11-2.9c2.4-2.6,4.6-8.4,5.1-11.6
		c0.5-3.2-0.3-4.4-2-5.2c-1.7-0.8-7.7-2.4-14.4-2.4c-7.9,0-14.5,0.4-15,3C99.9,90.9,101,100.3,101.8,102.1z"/>
	<path class="st16" d="M179.3,85.2c-0.2-0.5-1.1-0.6-2.8-0.8s-10.2-1.3-17.8-1.3c-7.7,0-18.8,2.6-21.8,2.6c-3,0-14.1-2.6-21.8-2.6
		c-7.7,0-16.1,1.1-17.8,1.3c-1.8,0.2-2.6,0.4-2.8,0.8c-0.4-0.2-4.8,3.4-4.7,4.3c0.1,0.9,0.9,2.6,1.7,2.6c0.8,0,3.2-1.4,3.2-1.4
		c0.3,0.5,2.1,0.3,2.9,2.3c1.2,3,2.1,9,3.1,10.9c1.1,1.9,3.6,4.4,11.9,4.8c8.3,0.4,12.1-0.7,14.8-2.9s5.3-9.1,7.1-12.7
		c1-2.1,2.4-2,2.4-2s1.4-0.1,2.4,2c1.8,3.7,4.4,10.6,7.1,12.7c2.7,2.2,6.5,3.2,14.8,2.9c8.3-0.4,10.8-2.9,11.9-4.8
		c1.1-1.9,2-8,3.1-10.9c0.8-2.1,2.6-1.8,2.9-2.3c0,0,2.4,1.4,3.2,1.4c0.8,0,1.6-1.7,1.7-2.6C184.1,88.6,179.7,85.1,179.3,85.2z
		 M131.8,92.8c-0.5,3.2-2.7,9-5.1,11.6c-2.8,3-8.6,2.9-11,2.9c-2.4,0-7.8-0.6-9.7-1.1c-1.9-0.6-3.5-2.2-4.2-4
		c-0.7-1.9-1.9-11.2-1.4-13.9c0.5-2.6,7.1-3,15-3c6.7,0,12.7,1.6,14.4,2.4C131.5,88.4,132.4,89.7,131.8,92.8z M171.9,102.1
		c-0.7,1.9-2.3,3.4-4.2,4c-1.9,0.6-7.4,1.2-9.7,1.1c-2.4,0-8.2,0.1-11-2.9c-2.4-2.6-4.6-8.4-5.1-11.6c-0.5-3.2,0.3-4.4,2-5.2
		c1.7-0.8,7.7-2.4,14.4-2.4c7.9,0,14.5,0.4,15,3C173.7,90.9,172.6,100.3,171.9,102.1z"/>
</g>
<path class="st2" d="M158,168l-4-10h-35l-3,10l11,3C127,171,153,177,158,168z"/>
<path class="st10" d="M117.9,161.7c0,0,11.1,4.3,18.1,4.3s17.7-3.3,19.3-4.7c-0.7-1.7-1.5-2.7-1.5-2.7L135,159l-16.3-0.2
	L117.9,161.7z"/>
<g id="Beard_7_">
	<g>
		<g>
			<path class="st21" d="M172.6,132.8c-2.3,3.9-12.5,5.7-13.9,7.9c-1.4,2.1-2.2,8.1-3.7,9.4c-1.5,1.3-14.1,2-15.2,0.9
				c-1-1.1-2-4.4-0.7-5.5c1.2-1.2,2.5-3.5,2.5-3.5s-2.5,0.5-5.6,0.5c-3.1,0-5.6-0.5-5.6-0.5s1.2,2.4,2.5,3.5
				c1.2,1.2,0.3,4.4-0.7,5.5c-1,1.1-13.7,0.6-15.2-0.8c-1.5-1.3-2.3-7.4-3.7-9.5c-1.4-2.1-11.5-4-13.9-7.9
				c-2.3-3.9-7.4-20.5-7.4-20.5s-0.2,10.2,1.8,18.5c2,8.3,8.1,18.2,14.6,23.9c6.4,5.8,23.4,9.3,27.7,9.3c4.2,0,21.2-3.6,27.7-9.3
				c6.4-5.8,12.5-15.9,14.5-24.2c2-8.3,1.9-18.3,1.9-18.3S174.9,128.9,172.6,132.8z"/>
		</g>
	</g>
</g>
<path class="st21" d="M162.2,133.6c-2.8-6.2-13.8-8.9-18.4-9.1c-4.5-0.2-7.4,1.6-7.4,1.6s-2.8-1.8-7.4-1.6c-4.5,0.2-15.5,3-18.4,9.1
	c-2.8,6.2,3.2,11.5,3.8,11.5c1,0,0.1-5.4,4.5-10.3c3.5-3.9,11.3-3.1,13.7-3.6c2-0.4,3.4-1.5,3.8-1.8c0.4,0.3,1.7,1.4,3.8,1.8
	c2.5,0.5,10.2-0.3,13.7,3.6c4.4,4.9,3.5,10.3,4.5,10.3C159,145.1,165.1,139.8,162.2,133.6z"/>
</svg>
