<?xml version="1.0" encoding="utf-8"?>
<!-- Generator: Adobe Illustrator 22.0.1, SVG Export Plug-In . SVG Version: 6.00 Build 0)  -->
<svg version="1.1" id="Layer_1" xmlns="http://www.w3.org/2000/svg" xmlns:xlink="http://www.w3.org/1999/xlink" x="0px" y="0px"
	 viewBox="0 0 100 100" style="enable-background:new 0 0 100 100;" xml:space="preserve">
<style type="text/css">
	.st0{fill:#F93887;}
</style>
<g>
	<g>
		<path class="st0" d="M56.3,1c0.3,0,0.5,0,0.8,0c0.7,0.6,1.5,1.2,2.2,1.8c0.9,0.8,1.1,1.4,0.6,2.5c-0.7,1.8-1.3,3.6-2.2,5.3
			c-1,1.9-1.2,3.8-0.3,5.7c0.5,1,0.2,1.6-0.6,2.3c-1,0.9-1.9,1.9-3,3c4.7,0.7,8.7,2.4,12.6,5c0.1-1.1,0.3-2.1,0.1-3
			c-0.3-1.8,0.5-2.9,2.2-3.5c1.1-0.4,1.7-1.3,2.2-2.4c0.9-2.3,2-4.5,3-6.7c0.3-0.8,0.9-1.3,1.7-1.3c1,0,2,0,2.9,0.2
			c0.4,0.1,0.8,0.8,1,1.2c0.1,0.5-0.1,1.1-0.3,1.6c-1.2,3.4-2.4,6.8-3.7,10.1c-0.1,0.3-0.2,0.6-0.3,1.1c0.5-0.2,0.8-0.2,1.2-0.4
			c3.7-1.3,7.4-2.6,11.2-3.9c0.9-0.3,1.9,0.2,2,1.1c0.1,0.9,0.2,1.8,0.2,2.7c0,0.8-0.3,1.4-1.2,1.8c-2.1,0.9-4.2,1.9-6.3,2.7
			c-1.3,0.5-2.4,1.2-2.8,2.6C79,32.4,77.8,33,76,32.7c-0.9-0.1-1.9,0-3.2,0c2.8,3.9,4.5,7.9,5.4,12.5c0.7-0.7,1.3-1.1,1.7-1.6
			c1.3-1.8,2.9-2.2,4.9-1.2c0.8,0.4,1.5,0.2,2.3-0.1c2.4-1,4.8-1.8,7.2-2.8c1.1-0.4,1.9-0.2,2.7,0.6c0.3,0.3,0.6,0.7,0.9,1
			c1.3,1.4,1.1,2.5-0.7,3.3c-2.9,1.4-5.9,2.7-8.8,4.1c-0.7,0.3-1.4,0.7-2.2,1.1c0.5,0.3,0.8,0.4,1.1,0.6c3.4,1.6,6.8,3.3,10.1,4.9
			c0.6,0.3,1,0.9,1.5,1.3c0,0.3,0,0.5,0,0.8c-0.6,0.7-1.2,1.5-1.8,2.2c-0.8,0.9-1.4,1.1-2.5,0.6c-1.7-0.7-3.5-1.3-5.2-2.1
			c-2-1-3.9-1.2-5.9-0.3c-0.9,0.4-1.5,0.2-2.2-0.5c-0.9-1-1.9-1.9-3.1-3c-0.8,4.7-2.4,8.7-5,12.6c1.2,0.1,2.2,0.3,3.2,0.1
			c1.7-0.2,2.7,0.4,3.3,2c0.4,1.3,1.4,1.9,2.6,2.4c2.2,0.9,4.4,2,6.5,2.9c0.9,0.4,1.4,1.1,1.4,2.1c0,0.8,0,1.6-0.2,2.4
			c-0.2,0.5-0.7,1-1.2,1.1c-0.4,0.2-1.1,0-1.6-0.2c-3.4-1.2-6.8-2.5-10.2-3.7c-0.3-0.1-0.6-0.2-1.1-0.3c0.2,0.5,0.2,0.8,0.4,1.2
			c1.3,3.7,2.6,7.4,3.9,11.2c0.3,0.9-0.2,1.9-1.1,2c-0.9,0.1-1.8,0.2-2.7,0.2c-0.8,0-1.4-0.3-1.8-1.2c-0.8-2.1-1.8-4.1-2.6-6.2
			c-0.5-1.5-1.3-2.6-2.8-3.1c-1.7-0.6-2.2-1.7-2-3.3c0.1-1,0-2.1,0-3.4c-3.9,2.8-7.9,4.5-12.5,5.4c0.7,0.7,1.1,1.3,1.7,1.7
			c1.8,1.3,2.3,2.9,1.2,4.9c-0.4,0.8-0.3,1.5,0.1,2.3c0.9,2.4,1.8,4.8,2.7,7.1c0.5,1.2,0.2,2.1-0.7,2.9c-0.3,0.3-0.6,0.5-0.9,0.8
			c-1.5,1.3-2.5,1.1-3.3-0.7c-1.5-3.2-3-6.3-4.4-9.5c-0.2-0.4-0.4-0.8-0.7-1.4c-0.2,0.4-0.4,0.7-0.6,1c-1.7,3.4-3.3,6.8-5,10.2
			c-0.3,0.6-0.8,1-1.2,1.5c-0.3,0-0.5,0-0.8,0c-0.8-0.6-1.6-1.3-2.3-1.9c-0.7-0.6-0.9-1.3-0.5-2.3c0.8-1.7,1.3-3.6,2.2-5.3
			c1-2,1.2-3.9,0.3-5.9c-0.4-0.9-0.2-1.5,0.5-2.2c1-0.9,1.9-1.9,3-3.1c-4.7-0.7-8.7-2.4-12.6-5c-0.1,1.1-0.3,2.1-0.1,3
			c0.3,1.8-0.5,2.9-2.2,3.5c-1.1,0.4-1.7,1.3-2.2,2.4c-0.9,2.3-2,4.5-3,6.7c-0.3,0.8-0.9,1.3-1.7,1.3c-1,0-2,0-2.9-0.2
			c-0.4-0.1-0.8-0.8-1-1.2c-0.1-0.5,0.1-1.1,0.3-1.6c1.2-3.4,2.4-6.7,3.6-10.1c0.1-0.3,0.2-0.7,0.4-1.2c-0.5,0.2-0.8,0.2-1.2,0.4
			c-3.7,1.3-7.4,2.6-11.2,3.9c-0.9,0.3-1.9-0.2-2-1.1c-0.1-0.9-0.2-1.8-0.2-2.7c0-0.8,0.3-1.4,1.2-1.8c2-0.8,4-1.8,6.1-2.5
			c1.6-0.6,2.7-1.5,3.3-3c0.5-1.5,1.5-2,3.1-1.8c1.1,0.1,2.2,0,3.6,0c-2.8-3.9-4.5-7.9-5.4-12.5c-0.7,0.7-1.3,1.2-1.9,1.8
			c-2,1.9-2,2-4.7,1.1c-0.9-0.3-1.7-0.2-2.6,0.1c-2.3,0.9-4.6,1.8-6.9,2.6c-1.4,0.5-2.1,0.4-3.1-0.8c-0.2-0.3-0.5-0.5-0.7-0.8
			c-1.2-1.4-1-2.4,0.7-3.2c3.1-1.4,6.1-2.9,9.2-4.3c0.6-0.3,1.1-0.6,1.9-0.9c-0.5-0.2-0.7-0.4-1-0.6c-3.4-1.7-6.8-3.3-10.2-5
			c-0.6-0.3-1-0.8-1.5-1.3c0-0.3,0-0.5,0-0.8c0.6-0.8,1.3-1.6,1.9-2.3c0.6-0.7,1.3-0.9,2.3-0.5c1.7,0.8,3.6,1.3,5.3,2.2
			c2,1,3.9,1.2,5.9,0.3c0.9-0.4,1.5-0.2,2.2,0.5c0.9,1,1.9,1.9,3.1,3c0.7-4.7,2.4-8.7,5-12.6c-1.1-0.1-2.1-0.3-3-0.1
			c-1.8,0.3-2.9-0.5-3.5-2.2c-0.4-1.1-1.3-1.7-2.4-2.2c-2.3-0.9-4.5-2-6.7-3c-0.9-0.4-1.4-1.1-1.4-2.1c0-0.8,0-1.6,0.2-2.4
			c0.2-0.5,0.7-1,1.2-1.1c0.4-0.2,1.1,0,1.6,0.2c3.4,1.2,6.8,2.5,10.2,3.7c0.3,0.1,0.6,0.2,1.1,0.3c-0.2-0.5-0.2-0.8-0.3-1.2
			c-1.3-3.7-2.6-7.4-3.9-11.2c-0.3-0.9,0.2-1.9,1.1-2c0.9-0.1,1.8-0.2,2.7-0.2c0.8,0,1.4,0.3,1.8,1.2c0.8,2,1.8,4,2.5,6.1
			c0.6,1.6,1.5,2.7,3,3.3c1.5,0.5,2,1.5,1.8,3.1c-0.1,1.1,0,2.2,0,3.6c3.9-2.8,7.9-4.5,12.5-5.4c-0.7-0.7-1.1-1.3-1.7-1.7
			c-1.8-1.3-2.3-2.9-1.2-4.9c0.4-0.8,0.3-1.5-0.1-2.3c-0.9-2.3-1.8-4.7-2.7-7c-0.5-1.4-0.4-2,0.7-3.1c0.3-0.3,0.6-0.5,0.9-0.8
			c1.4-1.2,2.4-1,3.2,0.7c1.5,3.2,3,6.4,4.5,9.6c0.2,0.4,0.4,0.8,0.7,1.4c0.2-0.4,0.4-0.7,0.6-1c1.7-3.4,3.3-6.8,5-10.2
			C55.3,1.9,55.9,1.5,56.3,1z M50,42.7c-4.1,0-7.3,3.3-7.3,7.4c0,4,3.3,7.3,7.3,7.3c4.1,0,7.4-3.3,7.3-7.4C57.3,46,54,42.7,50,42.7z
			 M36.9,33.7c1.4,1.4,2.7,2.8,4.1,4.1c0.1,0.1,0.6,0.1,0.8,0c1.5-0.6,2.9-1.4,4.4-2c0.5-0.2,0.7-0.4,0.7-0.9c0-0.9,0-1.8,0-2.7
			c0-0.9,0-1.8,0-2.8C43.1,29.9,39.9,31.4,36.9,33.7z M33.7,63c1.4-1.4,2.8-2.7,4.1-4.1c0.1-0.1,0-0.6-0.1-0.8
			c-0.6-1.4-1.3-2.9-1.9-4.3c-0.2-0.5-0.5-0.7-1-0.7c-1.6,0-3.1,0-4.7,0c-0.2,0-0.5,0.1-0.7,0.1C29.6,56.1,31.6,60.8,33.7,63z
			 M70.7,46.9c-0.6-3.8-2-7.1-4.4-10c-1.4,1.4-2.7,2.7-4,4.1c-0.1,0.2-0.1,0.6,0,0.8c0.7,1.5,1.4,3.1,2.1,4.6
			c0.1,0.2,0.3,0.5,0.5,0.5C66.7,46.9,68.6,46.9,70.7,46.9z M63.1,66.3c-1.4-1.4-2.8-2.8-4.1-4c-0.2-0.1-0.6-0.1-0.9,0.1
			c-1,0.5-2,1.1-3.1,1.5c-2,0.8-2,0.8-2,3c0,1.3,0,2.5,0,3.9C56.9,70.1,60.1,68.6,63.1,66.3z M62.5,33.2c-3.1-2.3-6.4-3.6-10.2-4
			c0,2,0,3.8,0,5.7c0,0.2,0.4,0.5,0.6,0.6c1.5,0.6,3.1,1.2,4.6,1.8c0.2,0.1,0.7,0.1,0.8,0C59.7,36,61,34.6,62.5,33.2z M29.3,47.8
			c1.9,0,3.8,0,5.7,0c0.2,0,0.4-0.4,0.5-0.6c0.6-1.5,1.2-3.1,1.8-4.6c0.1-0.2,0.1-0.6,0-0.7c-1.3-1.4-2.7-2.7-4.1-4.1
			C31.3,39.6,29.2,45.2,29.3,47.8z M70.8,52.2c-2,0-3.9,0-5.8,0c-0.2,0-0.4,0.3-0.5,0.6c-0.6,1.6-1.2,3.1-1.8,4.7
			c-0.1,0.2-0.1,0.6,0,0.7c1.3,1.4,2.7,2.7,4.1,4.1C69.1,59.3,70.4,56.1,70.8,52.2z M47.7,70.8c0-2,0-4,0-5.9c0-0.1-0.2-0.3-0.3-0.4
			c-1.8-0.6-3.6-1.3-5.3-1.8c-1.4,1.4-2.8,2.8-4.3,4.3C40.6,69.1,43.9,70.3,47.7,70.8z"/>
	</g>
</g>
</svg>
