<?xml version="1.0" encoding="utf-8"?>
<!-- Generator: Adobe Illustrator 22.0.1, SVG Export Plug-In . SVG Version: 6.00 Build 0)  -->
<svg version="1.1" id="Layer_1" xmlns="http://www.w3.org/2000/svg" xmlns:xlink="http://www.w3.org/1999/xlink" x="0px" y="0px"
	 viewBox="0 0 100 100" style="enable-background:new 0 0 100 100;" xml:space="preserve">
<style type="text/css">
	.st0{fill:#F93887;}
</style>
<g>
	<path class="st0" d="M90.7,42.8c1.4-0.8,2.3-2.4,2.3-4V28c0-1.7-0.9-3.2-2.3-4L52.5,1.8c-1.4-0.8-3.2-0.8-4.7,0L9.3,24
		C7.9,24.8,7,26.3,7,28v44.4c0,1.7,0.9,3.2,2.3,4l38.2,21.8c1.4,0.8,3.1,0.8,4.6,0l23.1-12.9c0.7-0.4,1.2-1.2,1.2-2s-0.4-1.6-1.2-2
		L36.6,59.2c-0.7-0.4-1.2-1.2-1.2-2v-14c0-0.8,0.4-1.6,1.2-2l12-6.9c0.7-0.4,1.6-0.4,2.3,0L63,41.2c0.7,0.4,1.2,1.2,1.2,2v11
		c0,0.8,0.4,1.6,1.2,2c0.7,0.4,1.6,0.4,2.3,0L90.7,42.8z"/>
	<path class="st0" d="M49.6,40.7c0.3-0.2,0.6-0.2,0.9,0l7.4,4.3c0.3,0.2,0.4,0.5,0.4,0.8v8.5c0,0.3-0.2,0.6-0.4,0.8l-7.4,4.3
		c-0.3,0.2-0.6,0.2-0.9,0L42.2,55c-0.3-0.2-0.4-0.5-0.4-0.8v-8.5c0-0.3,0.2-0.6,0.4-0.8L49.6,40.7z"/>
</g>
</svg>
