<?xml version="1.0" encoding="utf-8"?>
<!-- Generator: Adobe Illustrator 22.0.1, SVG Export Plug-In . SVG Version: 6.00 Build 0)  -->
<svg version="1.1" id="Layer_1" xmlns="http://www.w3.org/2000/svg" xmlns:xlink="http://www.w3.org/1999/xlink" x="0px" y="0px"
	 viewBox="0 0 100 100" style="enable-background:new 0 0 100 100;" xml:space="preserve">
<style type="text/css">
	.st0{fill:#F93887;}
</style>
<g>
	<path class="st0" d="M20.1,78.3c0-3.7,0.5-7.4,1.3-11c0.1-0.6,0-0.9-0.6-1.1c-4.6-1.5-9.1-3.3-13.1-6.1c-1.9-1.3-3.6-2.8-4.9-4.8
		c-2.5-3.7-2.4-7.4,0.3-11c2-2.7,4.7-4.6,7.6-6.2c3.2-1.8,6.6-3.2,10.1-4.3c0.5-0.2,0.7-0.3,0.6-0.9c-1-4.3-1.5-8.6-1.3-13
		c0.1-3,0.6-6,2.1-8.7c1.9-3.5,5.1-5,9.2-4.6C34.9,7,38,8.5,41,10.2c3,1.8,5.8,4,8.4,6.3c0.7,0.6,0.7,0.6,1.4,0
		c2.3-2.1,4.7-4,7.2-5.7c2.9-1.9,6-3.5,9.5-4.2c2.2-0.4,4.4-0.4,6.5,0.6c2.5,1.2,3.8,3.4,4.7,5.9c0.8,2.1,1.1,4.3,1.2,6.5
		c0.2,4.5-0.3,8.9-1.3,13.3c-0.1,0.5,0,0.7,0.5,0.9c4.7,1.5,9.2,3.4,13.3,6.3c1.8,1.2,3.4,2.7,4.6,4.4c2.8,3.9,2.7,7.7-0.3,11.5
		c-1.9,2.5-4.4,4.3-7.1,5.8c-3.3,1.9-6.8,3.4-10.5,4.5c-0.4,0.1-0.7,0.3-0.6,0.8c0.7,3.3,1.2,6.7,1.3,10.1c0.1,3.4-0.1,6.8-1.4,10.1
		c-1.2,3.1-3.1,5.4-6.5,6.1c-2.3,0.5-4.5,0.1-6.7-0.5c-4-1.3-7.5-3.5-10.9-6c-1.4-1.1-2.7-2.2-4-3.4c-0.4-0.4-0.7-0.4-1.1,0
		c-3.4,3.2-7.1,6-11.4,8.1c-2.4,1.2-4.8,2-7.4,2.2c-4.3,0.2-7.5-1.9-9.1-6C20.6,85,20.1,82.2,20.1,78.3z M49.9,65.9
		c2.8,0.1,5.6-0.1,8.3-0.3c0.5,0,0.8-0.2,1.1-0.6c3.1-4.6,5.9-9.5,8.3-14.5c0.2-0.4,0.2-0.7,0-1.1c-2.3-4.8-4.9-9.3-7.8-13.7
		c-0.6-0.8-1.1-1.3-2.2-1.4c-2.6-0.1-5.2-0.2-7.8-0.3c-2.8,0-5.5,0.1-8.3,0.3c-0.4,0-0.7,0.2-1,0.5c-3.2,4.7-6,9.5-8.4,14.6
		c-0.2,0.4-0.2,0.7,0,1.1c2.5,5.1,5.3,10,8.5,14.6c0.2,0.3,0.4,0.4,0.7,0.4C44.3,65.8,47.1,66,49.9,65.9z M94.6,50.2
		c0-1-0.3-1.8-0.8-2.6c-0.8-1.3-2-2.4-3.2-3.4c-3.9-2.9-8.2-4.8-12.8-6.2c-0.3-0.1-0.5-0.1-0.6,0.3c-1.1,3.8-2.5,7.5-4.1,11.1
		c-0.2,0.3-0.1,0.7,0,1c1.6,3.6,3,7.4,4.1,11.2c0.1,0.4,0.3,0.5,0.6,0.3c3-1,5.9-2.1,8.6-3.6c2.3-1.2,4.4-2.7,6.2-4.6
		C93.7,52.7,94.4,51.6,94.6,50.2z M70,10.8c-1.8,0-3.7,0.5-5.7,1.4c-3.9,1.8-7.3,4.4-10.5,7.3c-0.5,0.4-0.7,0.7-0.2,1.2
		c2.7,2.8,5.2,5.9,7.5,9.1c0.1,0.2,0.3,0.3,0.6,0.3c3.9,0.4,7.8,1.1,11.7,2c0.6,0.1,0.7,0,0.8-0.5c0.8-4.2,1.4-8.4,1.1-12.6
		c-0.2-1.9-0.5-3.8-1.3-5.5C73.2,11.7,71.8,10.7,70,10.8z M24.6,78.3c0,0.8,0,1.6,0,2.4c0.1,2,0.5,3.9,1.3,5.8
		c0.9,1.9,2.3,2.8,4.3,2.8c0.9,0,1.9-0.2,2.8-0.5c5.3-1.7,9.5-5,13.5-8.7c0.2-0.2,0.1-0.3,0-0.5c-2.8-2.9-5.3-6-7.7-9.3
		c-0.2-0.3-0.5-0.4-0.9-0.5c-3.9-0.4-7.7-1-11.4-1.9c-0.5-0.1-0.7-0.1-0.8,0.5C25.1,71.6,24.5,74.9,24.6,78.3z M5.4,50.1
		c0,0.8,0.4,1.7,0.9,2.5c0.8,1.3,1.9,2.3,3.1,3.2c3.9,2.9,8.3,4.8,12.9,6.3c0.4,0.1,0.4,0,0.5-0.3c1.1-3.9,2.5-7.6,4.2-11.3
		c0.1-0.2,0.1-0.4,0-0.7c-1.6-3.7-3-7.4-4.2-11.2c-0.1-0.5-0.3-0.5-0.8-0.4c-3.2,1.1-6.4,2.3-9.3,4c-2.2,1.3-4.2,2.7-5.8,4.6
		C6.1,47.7,5.5,48.7,5.4,50.1z M75.5,78.6c0-3.7-0.5-7.1-1.2-10.4c-0.1-0.4-0.2-0.5-0.7-0.4c-3.5,0.9-7,1.5-10.6,1.9
		c-1,0.1-1.7,0.4-2.3,1.3c-2.1,3-4.4,5.7-7,8.4c-0.4,0.4-0.4,0.6,0,0.9c2.4,2.2,5,4.2,7.8,5.9c2.3,1.4,4.7,2.5,7.3,2.9
		c1.5,0.2,2.9,0.2,4.1-0.9c0.7-0.6,1.1-1.4,1.4-2.2C75.3,83.5,75.5,80.9,75.5,78.6z M30.2,10.9c-1.1,0-2.1,0.2-2.9,0.8
		s-1.3,1.5-1.6,2.4c-0.8,1.9-1.1,3.9-1.2,6c-0.2,4,0.4,7.9,1.2,11.8c0.1,0.4,0.2,0.6,0.7,0.4c3.9-0.9,7.8-1.6,11.7-2
		c0.3,0,0.5-0.2,0.6-0.4c0.5-0.7,1.1-1.5,1.6-2.2c1.9-2.4,3.9-4.8,6-7c0.3-0.3,0.4-0.5,0-0.8c-0.3-0.2-0.6-0.5-0.9-0.8
		c-3-2.6-6.2-5-9.9-6.7C33.8,11.5,32,11,30.2,10.9z M55.3,29.7c0-0.1,0-0.2-0.1-0.3c-1.6-2-3.3-4-5.1-5.8c-0.3-0.3-0.4-0.1-0.6,0.1
		c-1.4,1.5-2.8,3.1-4.1,4.7c-0.3,0.4-0.7,0.7-0.9,1.3C48.2,29.6,51.7,29.6,55.3,29.7z M44.6,70.3c0,0.1,0,0.2,0,0.2
		c1.6,2,3.3,4,5,5.9c0.2,0.2,0.4,0.2,0.6,0c1.3-1.4,2.6-2.8,3.8-4.3c0.4-0.5,0.9-1.1,1.3-1.7C51.8,70.5,48.2,70.5,44.6,70.3z
		 M64.8,64.9c0.7-0.1,1.3-0.2,1.9-0.3c1.9-0.3,3.9-0.7,5.8-1.2c0.2-0.1,0.6-0.1,0.4-0.5c-0.8-2.5-1.6-5-2.7-7.6
		C68.6,58.7,66.8,61.8,64.8,64.9z M29.7,44.5c0.2-0.2,0.3-0.4,0.4-0.6c1.4-2.7,2.9-5.3,4.5-7.9c0.2-0.2,0.5-0.6,0.4-0.8
		c-0.2-0.3-0.6,0-0.9,0c-0.1,0-0.2,0-0.3,0c-2.1,0.3-4.3,0.8-6.4,1.2c-0.4,0.1-0.5,0.2-0.3,0.6c0.4,1,0.6,2.1,1,3.1
		C28.6,41.7,29,43.1,29.7,44.5z M29.6,55.6c-1,2.5-1.8,4.9-2.6,7.5c-0.1,0.3,0,0.4,0.3,0.4c0.2,0,0.3,0.1,0.5,0.1
		c2.4,0.6,4.8,1,7.2,1.3C33.3,61.8,31.5,58.7,29.6,55.6z M70.3,44.5c1-2.6,1.8-5,2.6-7.6c0.1-0.4-0.2-0.4-0.3-0.4
		c-2.3-0.6-4.7-1-7-1.4c-0.2,0-0.4-0.1-0.5,0.1c-0.1,0.2,0.1,0.4,0.2,0.5c1,1.6,2.1,3.3,3,5C68.9,42,69.6,43.2,70.3,44.5z"/>
	<path class="st0" d="M40.9,50c-0.1-4.6,3.7-9.1,9.1-9.1c5.5,0,9.2,4.6,9.1,9.2c-0.1,5.1-4.1,9.1-9.2,9.1C45,59.1,40.7,54.9,40.9,50
		z"/>
</g>
</svg>
