<?xml version="1.0" encoding="utf-8"?>
<!-- Generator: Adobe Illustrator 22.0.1, SVG Export Plug-In . SVG Version: 6.00 Build 0)  -->
<svg version="1.1" id="Layer_1" xmlns="http://www.w3.org/2000/svg" xmlns:xlink="http://www.w3.org/1999/xlink" x="0px" y="0px"
	 viewBox="0 0 100 100" style="enable-background:new 0 0 100 100;" xml:space="preserve">
<style type="text/css">
	.st0{fill:#F93887;}
</style>
<g>
	<path class="st0" d="M75.6,33.7c-0.1-0.5-0.1-1-0.1-1.5c-0.1-1.3-0.3-2.6-0.5-3.9c-0.6-3.2-1.5-6.3-2.8-9.3
		c-1.4-3.2-3.3-6.1-5.6-8.6C64,7.6,61,5.4,57.4,4c-2.1-0.9-4.3-1.4-6.6-1.5c-1.1-0.1-2.3-0.1-3.4,0c-1.1,0.1-2.1,0.2-3.1,0.5
		c-3.3,0.7-6.4,2.1-9.2,4c-4.3,2.9-7.6,6.8-10,11.4c-1.5,2.8-2.5,5.8-3.3,8.9c-0.6,2.2-1,4.4-1.2,6.6c-0.1,1.2-0.2,2.4-0.3,3.6
		c-0.1,2.5,0,4.9,0.3,7.4c0.2,1.3,0.3,2.6,0.6,3.9c0.6,3.1,1.4,6.1,2.5,9c1.2,3.2,2.7,6.3,4.4,9.3c0.1,0.2,0.1,0.4,0,0.7
		c-0.8,1.5-1,3.1-0.7,4.7c0.8,3.8,4.5,6.3,8.4,5.5c4.7-1,7-6.1,4.9-10.2c-1.3-2.5-4.1-4.2-7.2-3.8c-0.2,0-0.3,0-0.4-0.2
		c0-0.1-0.1-0.1-0.1-0.2c-2.2-3.7-3.9-7.7-5-11.9c-0.7-2.5-1.1-5.1-1.4-7.7c-0.2-1.8-0.2-3.6-0.2-5.3c0-0.8,0.1-1.5,0.1-2.3
		c0.1-0.9,0.1-1.7,0.2-2.6c0.2-1.6,0.5-3.2,0.8-4.7c1.1-4.6,3.1-8.8,5.9-12.5c1.3-1.7,2.9-3.1,4.7-4.3c2-1.2,4-2.1,6.3-2.7
		c2.1-0.6,4.2-1,6.4-0.9c0.9,0,1.7,0.2,2.6,0.3c2.6,0.6,4.9,1.9,6.9,3.6c1.8,1.6,3.2,3.4,4.5,5.4c1.9,3.2,3.2,6.5,4.1,10.1
		c0.3,1.1,0.5,2.3,0.6,3.4c0,0.3,0,0.3,0.3,0.4c1.9,0.5,3.8,1.1,5.7,1.7C75.3,33.7,75.4,33.7,75.6,33.7z M14.7,47.1
		c-0.2,0.1-0.3,0.2-0.4,0.3c-2.2,1.6-4.2,3.4-6,5.4c-2.6,2.8-4.6,5.9-6.1,9.4c-1.4,3.2-2.1,6.5-2.2,10c-0.1,1.7,0,3.3,0.3,5
		c0.3,2,0.8,3.8,1.5,5.7c1.4,3.8,3.8,6.8,7,9.2c2.6,1.9,5.4,3.2,8.4,4.1c1.6,0.5,3.3,0.8,4.9,1c1.2,0.1,2.5,0.2,3.7,0.2
		c1,0,2,0,3-0.1c0.8-0.1,1.6-0.1,2.4-0.3c1.3-0.2,2.7-0.5,4-0.8c4.9-1.1,9.5-2.9,13.8-5.3c6-3.4,11.1-7.9,15.2-13.4
		c1.9-2.5,3.5-5.2,4.9-8c0.1-0.2,0.2-0.4,0.5-0.4c0.1,0,0.2,0,0.4-0.1c3.7-0.8,6.1-4.4,5.5-8.1C75,58,72.6,55.3,69.2,55
		c-1.4-0.1-2.7,0.1-3.9,0.8c-2.6,1.3-4.2,4.1-3.8,7.2c0.2,1.5,0.8,2.8,1.8,3.9c0.2,0.3,0.2,0.2,0.1,0.5c-0.9,1.7-1.8,3.3-2.9,4.8
		c-2.6,3.8-5.8,7-9.5,9.7c-2.5,1.9-5.1,3.5-7.9,4.9c-2.2,1.2-4.5,2.2-6.9,2.9c-3.4,1.1-6.9,1.6-10.4,1.6c-1.2,0-2.3-0.1-3.5-0.2
		c-1.5-0.2-2.9-0.4-4.3-0.9c-4.1-1.3-7.4-3.7-9.7-7.4c-1.7-2.8-2.7-5.8-2.9-9c-0.1-1.4,0-2.9,0.3-4.3c0.5-2.4,1.3-4.7,2.6-6.8
		c2-3.5,4.6-6.5,7.8-9c0.1-0.1,0.2-0.1,0.3-0.2C15.8,51.4,15.2,49.3,14.7,47.1z"/>
	<path class="st0" d="M72.4,97.5c-0.1,0-0.2-0.1-0.3-0.1c-4.5-0.1-8.8-1.1-13-2.8c-0.7-0.3-1.4-0.6-2.1-0.9c-0.1,0-0.2-0.1-0.3-0.1
		c0.1-0.1,0.2-0.2,0.3-0.2c1.4-1.1,2.8-2.2,4.2-3.4c0.3-0.2,0.6-0.5,0.9-0.8c0.1-0.1,0.3-0.2,0.5-0.1c2.3,1,4.6,1.7,7.1,2.1
		c1.1,0.2,2.1,0.3,3.2,0.4c1,0.1,2.1,0.1,3.1,0c3.8-0.2,7.3-1.2,10.4-3.3c2.1-1.4,3.7-3.2,5.1-5.3c1-1.6,1.8-3.2,2.3-5
		c0.3-1.2,0.5-2.4,0.5-3.6c0.1-2.9-0.5-5.7-1.6-8.4c-2-4.9-4.9-9-8.8-12.5c-2.7-2.4-5.6-4.4-8.8-6.1c-2.8-1.5-5.6-2.7-8.6-3.6
		c-2-0.6-4-1.1-6.1-1.4c-1.1-0.2-2.3-0.3-3.4-0.5c-0.7-0.1-1.5-0.1-2.2-0.1c-1.2,0-2.3,0-3.5,0c-0.4,0-0.7,0-1.1,0
		c-0.2,0-0.4,0.1-0.5,0.3c-0.7,1.4-1.7,2.5-3,3.2c-1,0.6-2.1,0.8-3.2,0.8c-2.8,0-4.9-1.2-6.3-3.6c-0.6-1-0.9-2.1-0.9-3.3
		c0-2.8,1.2-4.9,3.6-6.4c1-0.6,2.1-0.9,3.2-0.9c2.8,0,4.9,1.2,6.3,3.5c0.1,0.2,0.2,0.3,0.5,0.3c1.3,0,2.6,0,3.9,0
		c0.9,0,1.9,0.1,2.8,0.2c0.9,0.1,1.8,0.1,2.8,0.3c1.3,0.2,2.6,0.4,3.9,0.6c2.6,0.5,5.2,1.2,7.7,2.1c7.2,2.6,13.5,6.5,18.8,12
		c1.8,1.8,3.4,3.8,4.9,5.9c2.2,3.2,3.8,6.7,4.7,10.5c0.3,1.3,0.5,2.5,0.7,3.8c0.2,1.5,0.2,2.9,0.1,4.4c-0.2,3.1-0.9,6-2.3,8.7
		c-1.1,2-2.5,3.7-4.1,5.3c-3.8,3.6-8.2,5.9-13.3,7.1c-1.2,0.3-2.5,0.5-3.8,0.6c-0.8,0.1-1.6,0.1-2.4,0.2c-0.1,0-0.3,0-0.4,0.1
		C73.2,97.5,72.8,97.5,72.4,97.5z"/>
	<path class="st0" d="M75.6,33.7c-0.2,0-0.3-0.1-0.4-0.1c-1.9-0.6-3.8-1.2-5.7-1.7c-0.3-0.1-0.3-0.1-0.3-0.4
		c-0.1-1.2-0.3-2.3-0.6-3.4c-0.8-3.6-2.2-7-4.1-10.1c-1.2-2-2.7-3.9-4.5-5.4c-2-1.8-4.3-3-6.9-3.6c-0.9-0.2-1.7-0.3-2.6-0.3
		c-2.2-0.1-4.3,0.3-6.4,0.9C42,10,39.9,10.9,38,12.1c-1.8,1.1-3.4,2.6-4.7,4.3c-2.8,3.8-4.8,8-5.9,12.5c-0.4,1.6-0.7,3.1-0.8,4.7
		c-0.1,0.8-0.1,1.7-0.2,2.6c0,0.8-0.1,1.5-0.1,2.3c0,1.8,0.1,3.6,0.2,5.3c0.2,2.6,0.7,5.2,1.4,7.7c1.1,4.2,2.8,8.1,5,11.9
		c0,0.1,0.1,0.1,0.1,0.2c0.1,0.2,0.2,0.2,0.4,0.2c3.1-0.4,5.9,1.2,7.2,3.8c2.1,4.1-0.2,9.2-4.9,10.2c-3.9,0.8-7.6-1.7-8.4-5.5
		c-0.3-1.7-0.1-3.2,0.7-4.7c0.1-0.2,0.1-0.4,0-0.7c-1.7-3-3.2-6.1-4.4-9.3c-1.1-2.9-2-5.9-2.5-9c-0.2-1.3-0.4-2.6-0.6-3.9
		c-0.3-2.5-0.4-4.9-0.3-7.4c0-1.2,0.2-2.4,0.3-3.6c0.2-2.2,0.7-4.4,1.2-6.6c0.8-3.1,1.8-6,3.3-8.9c2.4-4.6,5.7-8.4,10-11.4
		c2.8-1.9,5.9-3.2,9.2-4c1-0.2,2.1-0.4,3.1-0.5c1.1-0.1,2.3-0.1,3.4,0C53,2.5,55.2,3,57.3,3.8c3.5,1.4,6.6,3.6,9.2,6.4
		c2.4,2.6,4.2,5.4,5.6,8.6c1.3,3,2.2,6.1,2.8,9.3c0.2,1.3,0.4,2.6,0.5,3.9C75.5,32.7,75.5,33.2,75.6,33.7z"/>
	<path class="st0" d="M14.7,47.1c0.5,2.2,1,4.3,1.7,6.4c-0.1,0.1-0.2,0.2-0.3,0.2c-3.2,2.5-5.8,5.5-7.8,9c-1.2,2.1-2.1,4.4-2.6,6.8
		c-0.3,1.4-0.4,2.8-0.3,4.3c0.2,3.3,1.2,6.3,2.9,9c2.3,3.7,5.5,6.1,9.7,7.4c1.4,0.4,2.8,0.7,4.3,0.9c1.2,0.1,2.3,0.2,3.5,0.2
		c3.5,0,7-0.5,10.4-1.6c2.4-0.8,4.7-1.7,6.9-2.9c2.7-1.5,5.4-3.1,7.9-4.9c3.7-2.7,6.9-5.9,9.5-9.7c1.1-1.5,2-3.1,2.9-4.8
		c0.2-0.3,0.2-0.3-0.1-0.5c-1-1.1-1.6-2.4-1.8-3.9c-0.4-3.1,1.2-5.9,3.8-7.2c1.2-0.6,2.5-0.9,3.9-0.8c3.4,0.3,5.8,2.9,6.3,5.9
		c0.6,3.7-1.8,7.3-5.5,8.1c-0.1,0-0.2,0.1-0.4,0.1c-0.3,0-0.4,0.1-0.5,0.4c-1.4,2.8-3,5.5-4.9,8C60.1,83,55,87.5,49,90.9
		c-4.4,2.5-9,4.2-13.8,5.3c-1.3,0.3-2.7,0.6-4,0.8c-0.8,0.1-1.6,0.2-2.4,0.3c-1,0.1-2,0.1-3,0.1c-1.2,0-2.5-0.1-3.7-0.2
		c-1.7-0.2-3.3-0.5-4.9-1c-3-0.9-5.9-2.2-8.4-4.1c-3.2-2.4-5.6-5.4-7-9.2c-0.7-1.8-1.2-3.7-1.5-5.7c-0.2-1.6-0.3-3.3-0.3-5
		c0.1-3.5,0.9-6.8,2.2-10c1.5-3.5,3.6-6.6,6.1-9.4c1.8-2,3.8-3.7,6-5.4C14.5,47.3,14.6,47.2,14.7,47.1z"/>
</g>
</svg>
