<?xml version="1.0" encoding="utf-8"?>
<!-- Generator: Adobe Illustrator 22.0.1, SVG Export Plug-In . SVG Version: 6.00 Build 0)  -->
<svg version="1.1" id="Layer_1" xmlns="http://www.w3.org/2000/svg" xmlns:xlink="http://www.w3.org/1999/xlink" x="0px" y="0px"
	 viewBox="0 0 100 100" style="enable-background:new 0 0 100 100;" xml:space="preserve">
<style type="text/css">
	.st0{fill:#F93887;}
</style>
<path class="st0" d="M28.6,86.1c21,2.9,41.5,5.7,62.5,8.5C84,82.7,77,71.1,70,59.4C70,59.4,28.6,86.1,28.6,86.1z M97.1,20.2
	c-1.8,2.8-3.7,5.5-5.5,8.3c-6.3,9.5-12.7,19.1-19,28.6c-0.4,0.5-0.8,1-0.3,1.8C78.3,69,84.4,79.1,90.5,89.2c1,1.6,1.9,3.2,3.2,4.7
	c1.2-24.6,2.5-49.1,3.7-73.7C97.3,20.3,97.1,20.2,97.1,20.2z M13.6,51.7c0.3,0.3,1,0.4,1.3,0.3c5.9-2.9,11.8-5.7,17.5-8.8
	c1.9-1,3.3-2.8,4.9-4.3c5.3-4.9,10.7-9.8,16-14.7c0.3-0.3,0.7-0.6,0.9-1c1.9-3.7,3.8-7.5,5.7-11.4c-2.3-0.9-4.5-1.7-6.8-2.5
	c-0.3-0.1-0.8,0.1-1.1,0.3c-5.2,2.9-10.4,5.6-15.4,8.8c-2.5,1.6-4.5,3.9-6.7,5.9c-3.6,3.3-7.1,6.5-10.6,9.8
	c-0.9,0.9-1.8,1.9-2.5,2.9c-2.4,3.5-4.7,7-7.2,10.7C11,49.1,12.2,50.4,13.6,51.7z M35,46.9c-2.9,12.3-5.8,24.6-8.8,37.2
	C40.3,75.1,54,66.3,67.6,57.5C56.8,54,45.9,50.4,35,46.9z M93.5,20.3c-11.9,2-23.5,3.9-35.2,5.9c4,9.7,7.9,19.3,11.9,29.1
	C78,43.6,85.7,32.1,93.5,20.3z M35.5,44.4c10.7,3.5,21.2,6.9,32,10.4c-4-9.8-7.9-19.2-11.8-28.8C48.9,32.1,42.3,38.2,35.5,44.4z
	 M14,58.9c-3.8,9.1-7.5,17.8-11.2,26.7c7.2-0.2,14.1-0.4,21.3-0.6C20.8,76.3,17.5,67.7,14,58.9z M24.4,78.8l0.3-0.1
	c2.6-10.6,5.2-21.2,7.8-32.2c-5.8,3-11.4,5.9-17.1,8.9C18.2,62.9,21.3,70.9,24.4,78.8z M89.2,18.6c-3.4-0.9-6.8-1.8-10.2-2.7
	c-4.9-1.3-9.8-2.6-14.7-3.9c-0.6-0.2-1.1-0.3-1.4,0.5c-1.7,3.5-3.5,7.1-5.3,10.6c-0.1,0.1,0,0.3-0.1,0.5c10.6-1.6,21.1-3.2,31.6-4.8
	C89.2,18.8,89.2,18.6,89.2,18.6z M69.4,10.5l27.7,7.7c-1.6-4.5-3.1-8.7-4.6-13.1l-23.1,5.1C69.5,10.3,69.4,10.5,69.4,10.5z
	 M26.7,88.1c-3.4-0.4-7,0-10.4,0c-2.9,0-5.7,0.2-8.6,0.2c-0.3,0-0.6,0.1-0.9,0.4c23.7,2.2,47.3,4.4,71,6.6l0-0.3
	C70.3,94,62.7,93,55.1,92C45.6,90.7,36.2,89.2,26.7,88.1z M3.3,77.5c3-7.1,6.1-14.1,9.1-21.2c0.3-0.7,0.3-1.2-0.3-1.8
	c-1.3-1.2-2.5-2.5-3.9-4C6.4,59.8,4.5,68.9,2.7,78l0.2,0.1C3,77.9,3.2,77.7,3.3,77.5z M63.4,8.7c5.1-1.3,10.4-2.4,15.5-3.5
	c0.3-0.1,0.7-0.2,1-0.3l-0.1-0.3c-7.3,1-14.6,2-22.3,3C59.7,8.5,61.3,9.2,63.4,8.7z"/>
</svg>
