<?xml version="1.0" encoding="utf-8"?>
<!-- Generator: Adobe Illustrator 22.0.1, SVG Export Plug-In . SVG Version: 6.00 Build 0)  -->
<svg version="1.1" id="Layer_1" xmlns="http://www.w3.org/2000/svg" xmlns:xlink="http://www.w3.org/1999/xlink" x="0px" y="0px"
	 viewBox="0 0 100 100" style="enable-background:new 0 0 100 100;" xml:space="preserve">
<style type="text/css">
	.st0{fill:#F93887;}
</style>
<g>
	<path class="st0" d="M48.4,13c1.7,0.5,3.5,0.6,5.2,1.1c3.2,1.1,6.1,2.6,7.8,5.7c1.9,3.5,1.6,7.2,0.2,10.8
		c-2.8,7.1-8.1,11.7-15.3,14.3c-4.4,1.6-8.9,2.3-13.6,2c-3.3-0.2-6.2-1.2-8.4-3.7c-0.6-0.6-0.9-1.3-1.1-2.1c-0.1-0.3,0-0.5,0.2-0.7
		c0.3-0.2,0.5-0.1,0.7,0.1c3.6,3.7,8,3.6,12.5,2.8c6.5-1.1,12.2-3.9,16.6-8.8c1.9-2.1,3.4-4.4,3.9-7.2c0.6-3.8-0.8-6.1-4.5-7.3
		c-3.8-1.3-7.8-1.2-11.6-0.5c-10.2,1.9-19.1,6.6-27,13.4c-2.2,1.9-4,4.1-5.1,6.8c-1.7,4.1-1,7.8,1.9,11.1c2.2,2.4,4.8,4.3,7.3,6.3
		c1.6,1.3,3.3,2.5,4.7,4.1c0.5,0.5,0.9,0.5,1.4,0.2c2.9-1.6,5.7-3.2,8.6-4.7c0.5-0.3,0.8-0.8,1.2-1.3c1.6-1.9,3.4-3.5,5.7-4.4
		c3.9-1.5,5.7,0.4,5.5,4.2c0,0.4-0.2,0.8,0,1.3c0.3-0.1,0.5-0.2,0.8-0.2c1.8-0.3,2.7,0.7,2.2,2.4c-0.8,3-1.6,6-2.3,9.1
		c-0.2,0.9-0.2,1.8-0.1,2.7c0.6-0.1,0.7-0.5,0.8-0.8c3.1-6.2,5.8-12.5,8.5-18.8c0.3-0.6,0.5-1.3,0.6-2c0.2-1.1,0.8-1.7,1.9-1.9
		c1-0.2,2-0.2,3-0.2c1.4,0.1,1.9,0.7,1.3,2c-1,2.4-1.1,4.8-0.7,7.3c0.2,1.1,0.7,2,1.3,3.2c2.2-4.2,5-7.9,6.2-12.4
		c0.2-0.9,0.2-2.1,1.2-2.5c1.6-0.6,3.2-0.9,4.9-0.2c0.7,0.3,0.7,0.8,0.5,1.4c-0.3,1.1-0.7,2.2-0.9,3.3c-0.5,3,0.4,5.6,1.8,8.2
		c0.4,0.7,0.8,0.3,1.2,0.1c3.1-1.4,6.4-1.9,9.8-1.6c4.1,0.3,7.7,1.9,10.2,5.3c3,3.9,2.1,9.6-2.6,11.6c-0.3,0.1-0.8,0.4-1-0.1
		c-0.3-0.5,0.2-0.7,0.5-0.9c0.1-0.1,0.2-0.1,0.3-0.2c2.8-1.9,3.4-4.5,1.7-7.4c-0.5-0.9-1.1-1.7-2-2.2c-5-3.4-10.4-3.5-16-1.7
		c-0.7,0.2-0.4,0.6-0.3,1c1.2,3.6,0.5,5.9-2.4,8.3c-1.9,1.6-3.9,2.7-6.4,2.8c-1.3,0.1-2.2-0.8-2.3-2.1c0-0.5,0-1.1,0.1-1.6
		c0.6-3.1,2.6-5.4,4.9-7.5c0.3-0.3,0.9-0.5,0.5-1.1c-1.2-2.2-1.9-4.6-2.4-7.3c-0.3,0.5-0.5,0.8-0.6,1.1c-1.4,2.7-2.9,5.4-4.6,7.8
		c-0.5,0.7-0.5,1.2-0.2,2c1.5,3.9,0.8,7.1-2,9.3c-2.4,1.8-5,2.8-8.1,2.6c-1.9-0.1-2.6-1.4-1.5-3c0.4-0.6,0.9-1.2,1.3-1.7
		c1.6-2,3.4-3.9,4.9-6c0.5-0.6,0.5-1.1,0.1-1.8c-1-1.9-1.9-4-2.2-6.2c-0.1-0.3-0.2-0.6-0.3-1.1c-0.9,2.1-1.7,4-2.5,5.8
		c-0.8,1.9-1.7,3.7-2.6,5.5c-1.4,2.8-2.7,5.6-4.6,8.1c-0.5,0.7-1.2,1.3-2.1,1.6c-1.5,0.5-2.8-0.5-3.2-2.4c-0.3-1.3-0.2-2.6-0.4-3.9
		c-0.4,0.6-0.6,1.1-0.9,1.7c-0.9,1.8-1.5,3.7-3,5.2c-1.5,1.4-3.9,1.3-5.1-0.3c-1.9-2.6-2.6-5.6-2.5-8.8c0.1-2.2,0.6-4.3,1-6.4
		l0.1-0.1l-0.1,0.1c-1.6,0.5-2.9,1.6-4.5,2.3c-0.7,0.3-0.6,0.7-0.4,1.3c2.5,6.9-0.1,15-6.2,19.1c-2.1,1.4-4.4,2.2-6.8,2.7
		c-1.3,0-2.6,0-3.9,0c-0.1-0.1-0.2-0.2-0.3-0.2c-2.7-0.3-4-2.1-4.6-4.5c-0.9-3.8,0.3-7,3-9.8c3.3-3.5,7.4-5.9,11.6-8.1
		c1.2-0.6,1.3-0.8,0.2-1.6c-2.6-1.9-5.2-3.7-7.8-5.5c-3.4-2.5-6.5-5.1-8.7-8.8c-3-4.8-1.3-9.9,1.7-14.2c3.3-4.8,7.7-8.4,12.6-11.5
		c6.3-3.9,13-7,20.2-8.8c1.7-0.4,3.4-0.7,5-1C44,13,46.2,13,48.4,13z M22.8,69.2c0.1-0.7-0.1-1.6-0.3-2.5c-0.1-0.8-0.4-0.8-1.1-0.4
		c-2.3,1.4-4.5,2.8-6.6,4.5c-2.4,1.9-4.4,4.1-4.9,7.3c-0.4,2.5,1,3.9,3.5,3.2C18.7,80,22.8,74.9,22.8,69.2z M34.6,67.9
		c0.1,0.7,0.1,1.4,0.3,2.1s0.1,1.8,1,1.9c0.8,0.1,1-0.9,1.4-1.5c0.1-0.2,0.2-0.3,0.3-0.5c1.8-4.3,3.6-8.6,4.8-13.1
		c0.2-0.8,0.8-1.8-0.1-2.3c-0.8-0.5-1.7,0.2-2.3,0.8C36.4,58.8,34.9,63.1,34.6,67.9z M74.3,63.8c0-0.2,0-0.5,0-0.7
		c0-0.3,0-0.7-0.3-0.8s-0.5,0.2-0.7,0.4c-1.4,1.5-2.4,3.2-3,5.1c-0.1,0.3-0.2,0.5,0,0.8c0.3,0.3,0.6,0,0.8-0.1
		C73.2,67.6,74.3,66,74.3,63.8z M60.9,66.6c-1.6,1.8-3.1,3.6-4.7,5.5C58.7,71.5,60.9,68.9,60.9,66.6z"/>
	<path class="st0" d="M30.6,61.5l0.1-0.1C30.7,61.5,30.7,61.5,30.6,61.5C30.7,61.6,30.6,61.5,30.6,61.5z"/>
</g>
</svg>
