<?xml version="1.0" encoding="utf-8"?>
<!-- Generator: Adobe Illustrator 22.0.1, SVG Export Plug-In . SVG Version: 6.00 Build 0)  -->
<svg version="1.1" id="Layer_1" xmlns="http://www.w3.org/2000/svg" xmlns:xlink="http://www.w3.org/1999/xlink" x="0px" y="0px"
	 viewBox="0 0 100 100" style="enable-background:new 0 0 100 100;" xml:space="preserve">
<style type="text/css">
	.st0{fill:#F93887;}
</style>
<g>
	<g>
		<path class="st0" d="M62.8,99c-0.5,0-0.9-0.2-1.4-0.2c-2.5-0.5-5-0.9-7.6-1.4c-2.4-0.4-4.8-0.9-7.1-1.3c-2.5-0.5-5-0.9-7.5-1.4
			c-2.1-0.4-4.2-0.8-6.4-1.2c-2.6-0.5-5.3-1-7.9-1.5c-2.2-0.4-4.4-0.8-6.6-1.2c-2.1-0.4-4.3-0.8-6.4-1.2c-1.6-0.3-3.1-0.6-4.7-0.9
			c-0.3-0.1-0.3-0.1-0.3-0.4c0.2-1.2,0.3-2.4,0.5-3.6c0.1-1,0.3-2,0.4-3c0.1-1,0.3-2.1,0.4-3.1c0.1-1,0.3-2,0.4-3c0.1-1,0.3-2,0.4-3
			c0.1-1,0.3-2.1,0.4-3.1c0.1-1,0.3-2,0.4-3.1c0.1-1,0.3-2,0.4-3c0.1-1,0.3-2.1,0.4-3.1c0.1-1,0.3-2,0.4-3c0.1-1,0.3-2,0.4-3
			c0.1-1,0.3-2.1,0.4-3.1c0.2-1.2,0.3-2.4,0.5-3.7c0.2-1.2,0.3-2.4,0.5-3.6c0.2-1.2,0.3-2.4,0.5-3.6c0.2-1.2,0.3-2.4,0.5-3.6
			c0.2-1.2,0.3-2.4,0.5-3.6c0.1-0.9,0.2-1.9,0.4-2.8c0-0.2,0.1-0.4,0.1-0.7c0.1-0.6,0.5-1,1-1.2c0.4-0.2,0.8-0.3,1.2-0.5
			c3-0.9,6-1.9,9-2.8c0.6-0.2,0.5-0.1,0.6-0.7c1-3.9,2.4-7.7,4.3-11.3c1.2-2.2,2.5-4.3,4.2-6.2c1.5-1.7,3.3-3.2,5.3-4.3
			c1.7-0.9,3.4-1.4,5.3-1.5c0.3,0,0.6,0,1-0.1c1.6-0.1,3,0.5,4.2,1.6c0.4,0.3,0.8,0.7,1.1,1.1c0.1,0.1,0.2,0.2,0.4,0.2
			c2.9,0,5.2,1.1,7,3.2c1.3,1.5,2.3,3.3,3,5.1c0.1,0.3,0.3,0.7,0.4,1c0.1,0.2,0.1,0.2,0.3,0.2c0.8-0.3,1.7-0.5,2.5-0.8
			c0.4-0.1,0.8-0.2,1.3-0.2c0.1,0,0.2,0,0.2,0C67,13.1,67,13.7,67,14.2c0,0,0,0,0,0.1c-0.1,0.6-0.1,1.3-0.1,2
			c-0.1,0.8-0.1,1.6-0.1,2.4c0,0,0,0.1,0,0.1c-0.1,0.6-0.1,1.3-0.1,1.9c0,0.8-0.1,1.6-0.1,2.4c0,0,0,0,0,0.1
			c-0.1,0.7-0.1,1.5-0.1,2.3c0,0.7-0.1,1.4-0.1,2.2c0,0,0,0,0,0.1c-0.1,0.6,0,1.3-0.1,1.9c-0.1,0.4,0,0.9-0.1,1.3
			c0,1.1-0.1,2.1-0.2,3.2c0,0.4,0,0.9-0.1,1.3c-0.1,1-0.1,2.1-0.2,3.1c0,0.4,0,0.9-0.1,1.3c-0.1,1-0.1,2-0.2,3c0,0.5,0,1-0.1,1.5
			c-0.1,1-0.1,1.9-0.2,2.9c0,0.5,0,1-0.1,1.5c-0.1,1-0.1,2-0.2,3c0,0.5,0,0.9-0.1,1.4c-0.1,1-0.1,2-0.2,3c0,0.5,0,1-0.1,1.5
			c-0.1,1-0.1,2-0.2,3c0,0.5,0,0.9-0.1,1.4c0,0.7-0.1,1.4-0.1,2.1c0,0.6-0.1,1.3-0.1,1.9c0,0,0,0,0,0c-0.1,0.7-0.1,1.4-0.1,2
			c-0.1,0.8-0.1,1.6-0.1,2.4c0,0,0,0,0,0.1c-0.1,0.7-0.1,1.4-0.1,2.1c0,0.7-0.1,1.5-0.1,2.2c0,0,0,0,0,0.1c-0.1,0.6-0.1,1.3-0.1,1.9
			c0,0.8-0.1,1.6-0.1,2.4c0,0,0,0,0,0.1c-0.1,0.7-0.1,1.4-0.1,2c0,0.8-0.1,1.6-0.1,2.4c0,0,0,0,0,0.1c-0.1,0.7-0.1,1.4-0.1,2.1
			c0,0.7-0.1,1.5-0.1,2.2c0,0,0,0,0,0.1c-0.1,0.6-0.1,1.3-0.1,2c-0.1,0.8-0.1,1.6-0.1,2.3c0,0,0,0,0,0.1C63,93,63.1,93.7,63,94.4
			c0,0.8-0.1,1.6-0.1,2.3c0,0,0,0,0,0.1C62.8,97.5,62.9,98.3,62.8,99z M22.7,69.9c-0.1,0.1-0.1,0.2-0.1,0.3
			c-0.7,2.4-1.5,4.9-2.2,7.3c-0.1,0.3-0.3,0.6-0.2,0.8c0.1,0.3,0.4,0.5,0.6,0.7c2,1.9,4.2,3.2,6.8,4.1c1.6,0.6,3.3,0.9,5,1.1
			c1.7,0.2,3.4,0.2,5-0.2c3.9-0.8,6.9-3,8.9-6.5c1.8-3.3,2.4-6.8,2-10.5c-0.2-2.1-1-4-2.2-5.8c-1.1-1.5-2.4-2.8-3.8-4
			c-1.2-0.9-2.4-1.8-3.6-2.7c-0.8-0.6-1.7-1.3-2.4-2.1c-0.8-0.9-1.2-1.8-1.1-3c0.2-1.1,0.6-2,1.5-2.7c0.9-0.7,1.9-1,3-1.2
			c1.6-0.2,3.1-0.1,4.6,0.2c1.4,0.3,2.8,0.7,4.1,1.3c0.2,0.1,0.2,0.1,0.3-0.1c0,0,0-0.1,0-0.1c1.1-3.4,2.3-6.7,3.4-10.1
			c0.1-0.2,0.3-0.5,0.2-0.7c-0.1-0.2-0.4-0.2-0.6-0.3c-2-0.8-4-1.1-6.1-1.1c-1.7-0.1-3.5,0.1-5.2,0.3c-2.1,0.4-4.2,1-6.1,2
			c-3.8,2-6.5,4.9-8.1,8.9c-1,2.4-1.4,5-1.3,7.6c0.1,1.4,0.3,2.7,0.8,4c0.6,1.5,1.5,2.9,2.7,4c0.9,1,2,1.8,3,2.7
			c0.9,0.8,1.9,1.5,2.7,2.4c1,1.1,1.6,2.4,1.6,3.9c0,2.1-1.6,3.8-3.7,3.8c-1.2,0-2.3-0.3-3.4-0.7c-2-0.8-3.8-1.9-5.5-3.2
			C23.1,70.1,22.9,70,22.7,69.9z M48.2,4.9c-0.5-0.3-1-0.5-1.5-0.5c-0.8,0-1.5,0.1-2.3,0.2c-1.9,0.4-3.5,1.3-5,2.6
			c-1.4,1.2-2.6,2.7-3.7,4.2c-1.1,1.6-2,3.3-2.8,5.1c-1,2.2-1.8,4.5-2.5,6.8c0,0.1-0.1,0.2,0,0.2c0,0,0.1,0,0.1,0
			c2.4-0.8,4.9-1.5,7.3-2.2c0.2-0.1,0.3-0.2,0.3-0.3c0.3-1.3,0.6-2.6,1-3.9c0.8-2.4,1.8-4.7,3.2-6.8c1.3-1.9,2.8-3.5,4.7-4.6
			C47.4,5.4,47.8,5.2,48.2,4.9z M42,20c0.1,0,0.1,0,0.2,0c3.1-1,6.2-1.9,9.2-2.9c0.3-0.1,0.3-0.1,0.3-0.4c0-1.4-0.1-2.8-0.2-4.2
			c-0.2-1.3-0.4-2.6-0.8-3.9c-0.3-0.8-0.1-0.8-0.9-0.4c-1.8,0.9-3.2,2.3-4.4,4c-1.6,2.3-2.6,4.8-3.4,7.5C41.9,19.8,41.9,19.9,42,20z
			 M55,16c0.1,0,0.1,0,0.2,0c1.4-0.4,2.9-0.9,4.3-1.3c0.3-0.1,0.3-0.1,0.2-0.4c-0.4-1.1-0.8-2.1-1.3-3.1c-0.5-0.9-1.1-1.8-1.8-2.5
			C55.8,8,55,7.6,54.1,7.4c-0.1,0-0.2-0.1-0.3,0C54.8,10.2,55,13,55,16z"/>
	</g>
	<g>
		<path class="st0" d="M62.8,99c0.1-0.7,0-1.5,0.1-2.2c0,0,0,0,0-0.1c0-0.8,0-1.6,0.1-2.3c0-0.7,0-1.4,0.1-2.1c0,0,0,0,0-0.1
			c0-0.8,0-1.6,0.1-2.3c0-0.7,0-1.3,0.1-2c0,0,0,0,0-0.1c0-0.7,0.1-1.5,0.1-2.2c0-0.7,0-1.4,0.1-2.1c0,0,0,0,0-0.1
			c0-0.8,0-1.6,0.1-2.4c0-0.7,0-1.4,0.1-2c0,0,0,0,0-0.1c0-0.8,0-1.6,0.1-2.4c0-0.6,0-1.3,0.1-1.9c0,0,0,0,0-0.1
			c0-0.7,0.1-1.5,0.1-2.2c0-0.7,0-1.4,0.1-2.1c0,0,0,0,0-0.1c0-0.8,0-1.6,0.1-2.4c0-0.7,0-1.4,0.1-2c0,0,0,0,0,0
			c0-0.6,0.1-1.3,0.1-1.9c0-0.7,0.1-1.4,0.1-2.1c0-0.5,0-0.9,0.1-1.4c0.1-1,0.1-2,0.2-3c0-0.5,0-1,0.1-1.5c0.1-1,0.1-2,0.2-3
			c0-0.5,0-0.9,0.1-1.4c0.1-1,0.1-2,0.2-3c0-0.5,0-1,0.1-1.5c0.1-1,0.1-1.9,0.2-2.9c0-0.5,0-1,0.1-1.5c0.1-1,0.1-2,0.2-3
			c0-0.4,0-0.9,0.1-1.3c0.1-1,0.1-2.1,0.2-3.1c0-0.4,0-0.9,0.1-1.3c0.1-1,0.1-2.1,0.2-3.2c0-0.4,0-0.9,0.1-1.3
			c0.1-0.6,0-1.3,0.1-1.9c0,0,0,0,0-0.1c0-0.7,0-1.4,0.1-2.2c0.1-0.8,0-1.5,0.1-2.3c0,0,0,0,0-0.1c0-0.8,0-1.6,0.1-2.4
			c0-0.6,0-1.3,0.1-1.9c0,0,0-0.1,0-0.1c0-0.8,0-1.6,0.1-2.4c0-0.7,0-1.3,0.1-2c0,0,0,0,0-0.1c0-0.5,0-1.1,0.1-1.6
			c0.4,0,0.7,0.2,0.9,0.5c1.8,1.8,3.5,3.5,5.3,5.3c0.3,0.3,0.5,0.4,0.9,0.4c1.4,0.1,2.8,0.2,4.3,0.3c0.8,0.1,1.6,0.1,2.4,0.2
			c0.2,0,0.5,0,0.7,0.1c0.5,0,0.8,0.3,0.9,0.8c0.1,0.9,0.3,1.9,0.4,2.8c0.2,1.6,0.5,3.1,0.7,4.7c0.2,1.5,0.5,3.1,0.7,4.6
			c0.2,1.5,0.5,3.1,0.7,4.6c0.2,1.4,0.4,2.8,0.6,4.2c0.2,1.4,0.4,2.8,0.6,4.2c0.2,1.4,0.4,2.8,0.6,4.1c0.2,1.6,0.5,3.1,0.7,4.7
			c0.2,1.4,0.4,2.8,0.6,4.1c0.2,1.5,0.5,3.1,0.7,4.6c0.2,1.4,0.4,2.8,0.6,4.1c0.2,1.6,0.5,3.1,0.7,4.7c0.2,1.5,0.5,3.1,0.7,4.6
			c0.2,1.5,0.5,3.1,0.7,4.6c0.2,1.4,0.4,2.8,0.6,4.1c0.2,1.5,0.5,3.1,0.7,4.6c0.1,0.9,0.3,1.9,0.4,2.8c0,0.3,0,0.3-0.2,0.3
			c-1.1,0.2-2.2,0.5-3.3,0.7c-4.6,1-9.2,2-13.8,3c-4.2,0.9-8.5,1.8-12.7,2.7C63,99,62.9,99,62.8,99z"/>
	</g>
</g>
</svg>
