<?xml version="1.0" encoding="utf-8"?>
<!-- Generator: Adobe Illustrator 22.0.1, SVG Export Plug-In . SVG Version: 6.00 Build 0)  -->
<svg version="1.1" id="Layer_1" xmlns="http://www.w3.org/2000/svg" xmlns:xlink="http://www.w3.org/1999/xlink" x="0px" y="0px"
	 viewBox="0 0 100 100" style="enable-background:new 0 0 100 100;" xml:space="preserve">
<style type="text/css">
	.st0{fill:#F93887;}
</style>
<g>
	<path class="st0" d="M99.7,50.1c0.2,24-20.1,49.8-50.3,49.7C25.3,99.7-0.2,79.3,0.3,49.1C0.7,23,22.6-0.3,50.6,0.2
		C74.8,0.6,99.6,19.9,99.7,50.1z M6.5,50.1c-0.1,25.7,22,43.4,43,43.5c26.8,0.1,43.8-22.6,44-42.8c0.2-28-23.1-44.2-43.4-44.3
		C26.1,6.4,6.5,26.1,6.5,50.1z"/>
	<path class="st0" d="M28.3,81.9c0.2-0.3,0.4-0.7,0.6-1c5.8-8.8,11.6-17.6,17.3-26.4c0.6-0.9,1.3-1.4,2.3-1.4c4.7,0,9.3,0.1,14,0.1
		c0.2,0,0.4,0.1,1,0.3c-11.8,9.7-23.3,19.2-34.9,28.7C28.5,82.1,28.4,82,28.3,81.9z"/>
	<path class="st0" d="M72.2,19.4c-0.4,0.7-0.9,1.5-1.3,2.2c-5.5,8.3-11,16.6-16.4,24.9c-0.7,1.1-1.6,1.6-2.9,1.6
		c-4.3-0.1-8.7,0-13,0c-0.4,0-0.8,0-1.2-0.1c-0.1-0.1-0.1-0.2-0.2-0.4C48.8,38,60.4,28.5,71.9,19C72,19.1,72.1,19.3,72.2,19.4z"/>
</g>
</svg>
