<?xml version="1.0" encoding="utf-8"?>
<!-- Generator: Adobe Illustrator 22.0.1, SVG Export Plug-In . SVG Version: 6.00 Build 0)  -->
<svg version="1.1" id="Layer_1" xmlns="http://www.w3.org/2000/svg" xmlns:xlink="http://www.w3.org/1999/xlink" x="0px" y="0px"
	 viewBox="0 0 100 100" style="enable-background:new 0 0 100 100;" xml:space="preserve">
<style type="text/css">
	.st0{fill:#F93887;}
</style>
<path class="st0" d="M0,0v100h100V0H0z M63.4,72.6c-3.3,2.6-8.2,4-14.1,4c-7.3,0-14.5-2.2-18.3-4.4l2-12.3
	c4.5,2.7,11.3,4.7,15.5,4.7c3.4,0,5.2-1.2,5.2-3.4s-2-3.7-7.7-5.7c-8.9-3.2-14.4-7-14.4-16c0-5,1.8-9.1,5.2-11.9
	c3.3-2.7,8-4.2,13.5-4.2c7.9,0,13.5,2.2,16.3,3.5l-2,12.2c-3.5-1.7-8.6-3.6-13.5-3.6c-2.7,0-4.2,1.1-4.2,2.9c0,2.1,2.7,3.5,7.5,5.3
	c9,3.2,14.6,7,14.6,16.2C69,65.4,67.1,69.7,63.4,72.6z"/>
</svg>
